<svg xmlns="http://www.w3.org/2000/svg" width="20.992" height="21" viewBox="0 0 20.992 21"><g transform="translate(0.001 0)"><path d="M.985,0A.977.977,0,0,1,1.1,1.946l-.114.007A.977.977,0,0,1,.863.007Z" transform="translate(13.369 9.924)" fill="#f5204e"/><path d="M.972-.5H.985a1.477,1.477,0,0,1,.172,2.943l-.029,0-.143.007A1.477,1.477,0,0,1,.8-.49l.031,0Zm.081,1.948A.477.477,0,0,0,1,.5L.908.5a.477.477,0,0,0,.066.948Z" transform="translate(13.369 9.924)" fill="#f5204e"/><path d="M.985,0A.977.977,0,0,1,1.1,1.946l-.114.007A.977.977,0,0,1,.863.007Z" transform="translate(9.454 9.924)" fill="#f5204e"/><path d="M.972-.5H.985a1.477,1.477,0,0,1,.172,2.943l-.029,0-.143.007A1.477,1.477,0,0,1,.8-.49l.031,0Zm.081,1.948A.477.477,0,0,0,1,.5L.908.5a.477.477,0,0,0,.066.948Z" transform="translate(9.454 9.924)" fill="#f5204e"/><path d="M.985,0A.977.977,0,0,1,1.1,1.946l-.114.007A.977.977,0,0,1,.863.007Z" transform="translate(5.539 9.924)" fill="#f5204e"/><path d="M.972-.5H.985a1.477,1.477,0,0,1,.172,2.943l-.029,0-.143.007A1.477,1.477,0,0,1,.8-.49l.031,0Zm.081,1.948A.477.477,0,0,0,1,.5L.908.5a.477.477,0,0,0,.066.948Z" transform="translate(5.539 9.924)" fill="#f5204e"/><path d="M10.492,21h0a10.357,10.357,0,0,1-4.379-.962l-1.894.241-.419.045c-.4.039-.727.058-1.008.058a2.176,2.176,0,0,1-1.662-.512C.563,19.3.543,18.366.7,16.938l.039-.323L.9,15.349l.051-.369.012-.055c0-.008,0-.009.006-.009A10.494,10.494,0,1,1,10.492,21Zm-4.3-2.423h.057l.1.008.086.016.082.024.178.068A9.036,9.036,0,0,0,16.887,4.109l-.207-.2a9.035,9.035,0,0,0-12.567.2,9.108,9.108,0,0,0-1.8,10.23l.049.125.034.114.014.083.006.1v.117l-.009.146-.043.406-.2,1.525-.037.344c-.012.125-.022.246-.029.36l-.016.32,0,.274.006.227a.774.774,0,0,0,.069.359.762.762,0,0,0,.359.069l.227.007.275,0,.319-.016.36-.029.345-.037,1.643-.209.289-.028Z" transform="translate(-0.001 0)" fill="#f5204e"/></g></svg>