<svg xmlns="http://www.w3.org/2000/svg" xmlns:xlink="http://www.w3.org/1999/xlink" width="32" height="32" viewBox="0 0 32 32"><defs><clipPath id="a"><rect width="32" height="32" fill="none"/></clipPath></defs><rect width="32" height="32" fill="none"/><g clip-path="url(#a)"><path d="M0,9.5v-8A1.5,1.5,0,0,1,1.5,0h14A1.5,1.5,0,0,1,17,1.5V30H0V13.5" transform="translate(1 1)" fill="#ebebeb"/><path d="M6.5,0A1.5,1.5,0,0,1,8,1.5v17H0V0Z" transform="translate(18 12.5)" fill="#ebebeb"/><path d="M8,0V10H0V0Z" transform="translate(5.5 21)" fill="#c3c9c9"/><path d="M1,2A1,1,0,1,1,2,1,1,1,0,0,1,1,2Z" transform="translate(30 30)" fill="#00e1f0"/><path d="M27,32H1a1,1,0,0,1-1-1V14.5a1,1,0,1,1,2,0V30H4.5V20.5a1.007,1.007,0,0,1,.293-.707A1,1,0,0,1,5.5,19.5h8a1,1,0,0,1,.707.293,1.007,1.007,0,0,1,.293.707V30H17V2.5a.5.5,0,0,0-.5-.5H2.5a.5.5,0,0,0-.5.5v8a1.006,1.006,0,0,1-.293.707,1,1,0,0,1-1.415,0A1.006,1.006,0,0,1,0,10.5v-8A2.5,2.5,0,0,1,2.5,0h14a2.518,2.518,0,0,1,1.768.733A2.486,2.486,0,0,1,19,2.5v9h5.5a2.483,2.483,0,0,1,1.768.732A2.518,2.518,0,0,1,27,14V30a1,1,0,0,1,.707.293A1,1,0,0,1,27,32ZM19,13.5V30h6V14a.5.5,0,0,0-.5-.5Zm-12.5,8V30h6V21.5Z" fill="#f5204e"/><path d="M2.793.293A1,1,0,0,0,2.5,1V2.5H1a1,1,0,0,0,0,2H2.5V6a1,1,0,0,0,2,0V4.5H6a1,1,0,0,0,0-2H4.5V1a1,1,0,0,0-1-1h0A1,1,0,0,0,2.793.293Z" transform="translate(6 4)" fill="#f5204e"/><path d="M.293.293A1,1,0,0,0,0,1V3.5a1,1,0,1,0,2,0V1A1,1,0,0,0,.293.293Z" transform="translate(21 15.5)" fill="#f5204e"/><path d="M.293.293A1,1,0,0,0,0,1V3.5a1,1,0,1,0,2,0V1A1,1,0,0,0,.293.293Z" transform="translate(21 22)" fill="#f5204e"/><path d="M.293,1.707A1,1,0,0,0,1,2H3.5a1,1,0,0,0,0-2H1A1,1,0,0,0,0,1H0A1,1,0,0,0,.293,1.707Z" transform="translate(4 15)" fill="#f5204e"/><path d="M.293,1.707A1,1,0,0,0,1,2H3.5a1,1,0,0,0,0-2H1A1,1,0,0,0,.293,1.707Z" transform="translate(10.5 15)" fill="#f5204e"/></g></svg>