<svg xmlns="http://www.w3.org/2000/svg" xmlns:xlink="http://www.w3.org/1999/xlink" width="32" height="32" viewBox="0 0 32 32"><defs><clipPath id="a"><rect width="32" height="32" fill="none"/></clipPath></defs><rect width="32" height="32" fill="none"/><g clip-path="url(#a)"><path d="M25,0V19H0V0Z" transform="translate(3.5 12)" fill="#ebf2f5"/><path d="M9,0V10H0V0Z" transform="translate(11.5 21)" fill="#c3c9c9"/><path d="M8,16a8,8,0,1,1,8-8A8,8,0,0,1,8,16Z" transform="translate(8 1)" fill="#c3c9c9"/><g transform="translate(0 -0.08)"><path d="M1.707.293A1,1,0,0,0,0,1V6A1,1,0,1,0,2,6V1A1,1,0,0,0,1.707.293Z" transform="translate(6.5 15.58)" fill="#f5204e"/><path d="M31,32.08H1a1,1,0,0,1-.707-.292,1,1,0,0,1,0-1.414A.994.994,0,0,1,1,30.08H2.5v-18a1.006,1.006,0,0,1,.293-.707A.994.994,0,0,1,3.5,11.08H7.232a9.049,9.049,0,1,1,.718,2H4.5v17h6v-9a1,1,0,0,1,1-1h9a1,1,0,0,1,1,1v9h6v-17h-1a1,1,0,0,1,0-2h2a1,1,0,0,1,1,1v18H31a1,1,0,1,1,0,2Zm-18.5-10v8h7v-8Zm3.5-20a7,7,0,1,0,3.889,1.18A6.961,6.961,0,0,0,16,2.08Z" fill="#f5204e"/><path d="M3,5V7A1,1,0,1,0,5,7V5H7A1,1,0,1,0,7,3H5V1A1,1,0,0,0,3,1V3H1A1,1,0,0,0,1,5H3Z" transform="translate(12 5.08)" fill="#f5204e"/></g><path d="M1,2A1,1,0,1,1,2,1,1,1,0,0,1,1,2Z" transform="translate(6.5 24.5)" fill="#c3c9c9"/></g></svg>