<svg xmlns="http://www.w3.org/2000/svg" width="20.19" height="21" viewBox="0 0 20.19 21"><path d="M6.413,0a.733.733,0,0,1,.1,1.458l-.1.007H.733A.733.733,0,0,1,.633.007L.733,0Z" transform="translate(6.523 13.807)" fill="#f5204e"/><path d="M9.269,21l-.9-.007L7.8,20.982l-.543-.018-.519-.025-.493-.033L6,20.887l-.458-.045-.435-.054L4.7,20.727C1.808,20.239.633,19,.2,15.99L.15,15.561c-.009-.074-.017-.149-.024-.223l-.04-.464-.033-.488L.04,14.132l-.02-.525-.013-.55L0,12.48v-.653l.007-.651.016-.6.025-.547.035-.5A5.412,5.412,0,0,1,1.433,5.952l.137-.143.313-.3.4-.375.6-.547,1.17-1.049L5.5,2.315l.484-.395A11.571,11.571,0,0,1,8.128.508,4.421,4.421,0,0,1,10.067,0a4.613,4.613,0,0,1,2.082.572,13.355,13.355,0,0,1,2.352,1.6L16.13,3.526l1.683,1.518.629.588.258.257.058.062c.918,1.023,1.267,2.053,1.384,4.079l.025.547.015.6.008.651v.646l-.011.856-.017.539c0,.088-.007.174-.011.26l-.028.5-.036.476-.046.453-.055.43-.065.407A5.155,5.155,0,0,1,18.446,19.5,6.127,6.127,0,0,1,15.07,20.79l-.435.054-.457.044-.237.019-.493.032-.517.025-.542.018-.567.011L11.227,21Zm.8-19.535a3.068,3.068,0,0,0-1.3.36A11.362,11.362,0,0,0,6.613,3.3L5.057,4.6,3.38,6.112,2.8,6.651l-.229.226-.129.144a3.422,3.422,0,0,0-.782,1.712l-.054.324-.044.359c-.012.117-.024.247-.035.4l-.026.439c0,.076-.007.156-.011.236L1.476,11l-.009.56,0,.917.009.8.02.738.02.458.026.433.034.407.042.383.051.36c.018.114.038.224.061.337L1.8,16.7c.405,1.608,1.272,2.318,3.2,2.621l.368.051.394.043.418.034.445.027.718.03.514.012,1.115.012h1.945l1.125-.009.769-.016.479-.018.453-.023.427-.03.4-.037.378-.046.355-.054c2.159-.367,2.985-1.289,3.275-3.654l.04-.382.033-.405.025-.43.018-.455.018-.732.005-.522v-.866l-.005-.587-.011-.534-.019-.484c0-.077-.008-.152-.012-.225l-.031-.418c-.005-.066-.011-.13-.018-.193l-.044-.359a3.6,3.6,0,0,0-.916-2.127L17.541,6.8l-.305-.292-.691-.636L15.194,4.654l-1.53-1.275-.348-.28a11.214,11.214,0,0,0-1.829-1.22A3.263,3.263,0,0,0,10.067,1.465Z" transform="translate(0 0)" fill="#f5204e"/></svg>