<svg xmlns="http://www.w3.org/2000/svg" xmlns:xlink="http://www.w3.org/1999/xlink" width="32" height="32" viewBox="0 0 32 32"><defs><clipPath id="a"><rect width="32" height="32" fill="none"/></clipPath></defs><rect width="32" height="32" fill="none"/><g clip-path="url(#a)"><path d="M11.5,0,7,4.5H0V22H23V4.5H16Z" transform="translate(4.5 9)" fill="#ebf2f5"/><g transform="translate(1 1)"><path d="M9,0V10.5H0V0Z" transform="translate(10.5 19.5)" fill="#ebf2f5"/><path d="M4.5,0,0,8.5H10.5L15,4l4.5,4.5H30L25,0Z" transform="translate(0 4)" fill="#ebebeb"/><path d="M4,0V8.5H0V0Z" transform="translate(19.5)" fill="#ebebeb"/></g><path d="M29.492,32h-27a1,1,0,0,1,0-2h1V14.5H1a1.008,1.008,0,0,1-.884-1.468l4.5-8.5a.992.992,0,0,1,.367-.389A1,1,0,0,1,5.495,4h13V1a1,1,0,0,1,1-1h4a1,1,0,0,1,1,1V4h1.5a1,1,0,0,1,.861.493l5,8.5a1.006,1.006,0,0,1-.862,1.507h-2.5V30h1a.994.994,0,0,1,.707.293A1,1,0,0,1,29.492,32Zm-18-12.5h9a1,1,0,0,1,1,1V30h5V14.5H22.907l.793.793a1,1,0,0,1-1.414,1.414l-6.292-6.293L9.7,16.707a1,1,0,0,1-1.414-1.414L9.08,14.5H5.495V30h5V20.5a.994.994,0,0,1,.293-.707A1.006,1.006,0,0,1,11.494,19.5Zm1,2V30h7V21.5h-7ZM15.994,8a1.01,1.01,0,0,1,.383.076,1,1,0,0,1,.324.217L20.907,12.5h8.337L25.42,6h-.928V7a1.006,1.006,0,0,1-.292.707,1,1,0,0,1-1.415,0A1.006,1.006,0,0,1,22.493,7V2h-2V7a1,1,0,0,1-.076.383.98.98,0,0,1-.216.325,1.01,1.01,0,0,1-.325.217,1,1,0,0,1-.767,0,1.017,1.017,0,0,1-.324-.217A1,1,0,0,1,18.493,7V6H6.1L2.656,12.5H11.08l4.207-4.207a1,1,0,0,1,.325-.217A1.017,1.017,0,0,1,15.994,8Z" transform="translate(0)" fill="#f5204e"/><path d="M.444.168A1,1,0,1,0,1,0H1A1,1,0,0,0,.444.168Z" transform="translate(7.001 7.5)" fill="#303639"/></g></svg>