<svg xmlns="http://www.w3.org/2000/svg" xmlns:xlink="http://www.w3.org/1999/xlink" width="34" height="33" viewBox="0 0 34 33"><defs><clipPath id="a"><rect width="32" height="32" transform="translate(-1069.5 284.029)" fill="none"/></clipPath></defs><g transform="translate(2 1)"><rect width="32" height="32" fill="none"/><g transform="translate(-1138 -1534)"><g transform="translate(2205.5 1248.971)"><rect width="32" height="32" transform="translate(-1069.5 284.029)" fill="none"/><g clip-path="url(#a)"><path d="M-1048.5,307.029v8H-1065v-8Z" fill="#e6e6e6"/><path d="M-1048.5,285.529v3.5H-1065v-3.5Z" fill="#e6e6e6"/><path d="M-1059.25,310.029a1,1,0,0,0-1,1,1,1,0,0,0,1,1h5a1,1,0,0,0,1-1,1,1,0,0,0-1-1Z" fill="#e5063e"/><path d="M-1057.457,294.822a1,1,0,0,0-.293.707v1.5h-1.5a1,1,0,0,0-1,1,1,1,0,0,0,1,1h1.5v1.5a1,1,0,0,0,1,1,1,1,0,0,0,1-1v-1.5h1.5a1,1,0,0,0,1-1,1,1,0,0,0-1-1h-1.5v-1.5a1,1,0,0,0-1-1A1,1,0,0,0-1057.457,294.822Z" fill="#e5063e"/><rect width="32" height="32" transform="translate(-1069.5 284.029)" fill="none"/><g transform="translate(0 -1)"><path d="M-1065.3,292.529v-6a1.5,1.5,0,0,1,1.5-1.5h14a1.5,1.5,0,0,1,1.5,1.5v27a1.5,1.5,0,0,1-1.5,1.5h-14a1.5,1.5,0,0,1-1.5-1.5v-17" transform="translate(1 0.5)" fill="#e7eff2"/></g><path d="M-1047.172,313.889c-6.205.21-17.111.274-17.111,0V302.035s17.111-3.97,17.111,0Z" transform="translate(28 20.194)" fill="#ebebeb"/></g></g><path d="M8157.5-6619h-.013a2.5,2.5,0,0,1-1.754-.73,2.522,2.522,0,0,1-.73-1.766v-17a1,1,0,0,1,1-1,1,1,0,0,1,1,1v9.5h.5v2h-.5v5.5a.5.5,0,0,0,.5.5H8174l0,.065v.2c0,.574-.011,1.535-.031,1.643Zm16.5-16h-2v-10h-15v2.5a1,1,0,0,1-1,1,1,1,0,0,1-.7-.293.983.983,0,0,1-.293-.71v-6a2.5,2.5,0,0,1,2.5-2.5h14a2.5,2.5,0,0,1,2.5,2.5v2.14a1.008,1.008,0,0,1,.5.86v4.5a1,1,0,0,1-.138.5.985.985,0,0,1-.361.359v2.282a1,1,0,0,1,.5.859v1a.993.993,0,0,1-.5.855v.14h0Zm-16.5-14a.5.5,0,0,0-.5.5v1.5h15v-1.5a.5.5,0,0,0-.5-.5Z" transform="translate(-7014.5 8184.154)" fill="#e5063e"/><g transform="translate(1141.77 1540.783)"><g transform="translate(0 0)"><g transform="translate(0 0)"><rect width="26.23" height="23.204" transform="translate(0 0.583)" fill="none"/><path d="M-70.1,311.858a1.928,1.928,0,0,1-1.928-1.929A1.929,1.929,0,0,1-70.1,308a1.929,1.929,0,0,1,1.928,1.928,1.928,1.928,0,0,1-1.928,1.929Z" transform="translate(88.912 -289.752)" fill="#dff2f6"/><path d="M-81.9,285.029a1.525,1.525,0,0,1,1.525,1.525v3.813a3.431,3.431,0,0,1-3.432,3.432h-.763A3.431,3.431,0,0,1-88,290.367v-3.813a1.525,1.525,0,0,1,1.525-1.525Z" transform="translate(92.354 -284.266)" fill="#dff2f6"/><path d="M-78.356,301.5a1.062,1.062,0,0,0-1.133-.968H-91.207a1.061,1.061,0,0,0-1.134.968v8.71h9.254c3.082,0,3.146-1.869,3.146-3.249,0-2.269.487-3.284,1.586-3.284h0Z" transform="translate(93.225 -287.978)" fill="#e0f3f6"/><path d="M-84.043,294.324h-.763A4.2,4.2,0,0,1-89,290.129v-3.813a2.288,2.288,0,0,1,2.288-2.288h4.575a2.288,2.288,0,0,1,2.288,2.288v3.813A4.2,4.2,0,0,1-84.043,294.324Zm-2.669-8.769a.763.763,0,0,0-.763.763v3.813a2.669,2.669,0,0,0,2.669,2.669h.763a2.669,2.669,0,0,0,2.669-2.669v-3.813a.763.763,0,0,0-.763-.763Z" transform="translate(92.612 -284.029)" fill="#e50b3f"/><path d="M-82.694,311.28h-10.02c-.434,0-1.993-2.02.786-1.525h6.2a3.5,3.5,0,0,1-.7-2.1v-4.11a6.672,6.672,0,0,1-4.68-3.264,1.149,1.149,0,0,0-.821,1.083v2.288a.774.774,0,0,1-.786.763.774.774,0,0,1-.786-.763v-2.288a2.684,2.684,0,0,1,1.807-2.505,6.746,6.746,0,0,1-.236-2.07.775.775,0,0,1,.786-.763h.786a.775.775,0,0,1,.786.763.774.774,0,0,1-.786.763,4.839,4.839,0,0,0,.251,1.144h9.729a4.866,4.866,0,0,0,.236-1.144.774.774,0,0,1-.786-.763.775.775,0,0,1,.786-.763h.786a.775.775,0,0,1,.786.763,6.722,6.722,0,0,1-.24,2.07A2.683,2.683,0,0,1-77,301.367v.763a3.11,3.11,0,0,1,3.065,2.379,2.662,2.662,0,0,1,1.955,3.263,2.759,2.759,0,0,1-3.363,1.9,2.662,2.662,0,0,1-1.955-3.263,2.7,2.7,0,0,1,1.739-1.832A1.575,1.575,0,0,0-77,303.655h-.393a1.549,1.549,0,0,0-1.572,1.525v2.478A3.689,3.689,0,0,1-82.694,311.28Zm3.3-10.977h0a6.662,6.662,0,0,1-5.462,3.352v4a2.13,2.13,0,0,0,2.161,2.1,2.13,2.13,0,0,0,2.161-2.1V305.18a3.041,3.041,0,0,1,1.965-2.821v-.991a1.151,1.151,0,0,0-.821-1.064Zm4.754,5.639a1.162,1.162,0,0,0-1.179,1.144,1.162,1.162,0,0,0,1.179,1.144,1.162,1.162,0,0,0,1.179-1.144h0A1.162,1.162,0,0,0-74.639,305.942Zm-14.629-5.719a5.012,5.012,0,0,0,.864.839,5.152,5.152,0,0,0,3.155,1.059,5.136,5.136,0,0,0,4.02-1.9Z" transform="translate(93.5 -286.91)" fill="#e50b3f"/><path fill="#707070"/></g></g><path d="M-72.5,314.029a1,1,0,0,0-1,1,1,1,0,0,0,1,1h6a1,1,0,0,0,1-1,1,1,0,0,0-1-1Z" transform="translate(89.73 -291.813)" fill="#e50b3f"/></g></g></g></svg>