<svg xmlns="http://www.w3.org/2000/svg" width="16.592" height="21" viewBox="0 0 16.592 21"><g transform="translate(0.748 0.75)"><path d="M8.291,17.185a13.612,13.612,0,0,1-5.705-1.239C.332,14.82-.486,13.117.28,11.148l.46-1.03.14-.331.092-.245.041-.127.028-.107.017-.095L1.07,9.1l0-.116-.028-.837c-.006-.193-.008-.377-.008-.577A7.919,7.919,0,0,1,3.019,2.331,6.994,6.994,0,0,1,8.291,0a6.994,6.994,0,0,1,5.272,2.331,7.919,7.919,0,0,1,1.981,5.237c0,.3-.005.553-.017.87l-.017.544,0,.116.019.156.02.095.051.171.084.226.125.3.507,1.139c.756,1.944-.069,3.633-2.323,4.758A13.616,13.616,0,0,1,8.291,17.185Zm0-15.654A5.837,5.837,0,0,0,2.569,7.568c0,.27,0,.5.017.811l.019.634L2.6,9.175l-.025.241-.024.149c0,.025-.009.05-.015.075L2.5,9.794l-.05.168-.068.191-.087.221-.173.409-.429.957c-.449,1.153.068,2.081,1.579,2.836a12.239,12.239,0,0,0,10.044,0c1.511-.755,2.034-1.669,1.6-2.8l-.439-.98-.177-.418-.088-.225-.069-.193c-.01-.03-.019-.06-.028-.087l-.045-.162-.01-.043-.008-.033-.028-.15-.03-.247-.01-.172V8.945l.028-.841c.005-.2.007-.36.007-.536A5.838,5.838,0,0,0,8.291,1.53Z" transform="translate(-0.748 -0.75)" fill="#f5204e"/><path d="M4.907.255a.765.765,0,1,1,1.14,1.02,3.815,3.815,0,0,1-5.853,0A.765.765,0,1,1,1.336.255,2.289,2.289,0,0,0,4.907.255Z" transform="translate(4.423 17.608)" fill="#f5204e"/></g></svg>