<svg xmlns="http://www.w3.org/2000/svg" width="15.189" height="20.762" viewBox="0 0 15.189 20.762"><g transform="translate(0.75 0.75)"><path d="M6.861,8.05H2.415l-.006,0H2.4l-.006,0-.006,0-.006,0-.006,0-.006,0-.006,0-.006,0-.006,0-.006,0-.006,0-.006,0-.006,0-.006,0-.006,0-.006,0-.006,0-.006,0-.006,0-.006,0-.006,0-.006,0-.006,0-.006,0-.006,0-.006,0-.006,0-.006,0-.006,0-.006,0-.006,0-.006,0-.006,0-.006,0-.006,0-.006,0-.006,0-.006,0-.006,0-.006,0-.006,0-.006,0-.006,0-.006,0-.006,0-.006,0-.006,0-.006,0-.006,0-.006,0-.006,0-.006,0-.006,0-.006,0-.006,0-.006,0-.006,0-.006,0-.006,0-.006,0-.006,0-.006,0-.006,0-.006,0-.006,0-.006,0-.006,0-.006,0-.006,0L2,7.5,2,7.5l-.006,0-.006,0-.006,0-.006,0-.006,0-.006,0-.006,0-.006,0-.006,0-.006,0-.006,0-.006,0-.006,0-.006,0-.006,0-.006,0-.006,0-.006,0-.006,0-.006,0-.006,0-.006,0-.006,0-.006,0-.006,0-.006,0-.006,0-.006,0-.006,0-.006,0-.006,0-.006,0-.006,0-.006,0-.006,0-.006,0-.006,0-.006,0-.006,0-.006,0-.006,0-.006,0-.006,0-.006,0-.006,0-.006,0-.006,0-.006,0-.006,0L1.7,7.4,1.7,7.4l-.006,0-.006,0-.006,0-.006,0-.006,0-.006,0-.006,0-.006,0-.006,0-.006,0-.006,0-.006,0-.006,0-.006,0-.006,0-.006,0-.006,0-.006,0-.006,0-.006,0-.006,0-.006,0-.006,0-.006,0-.006,0-.006,0-.006,0-.006,0-.006,0-.006,0-.006,0-.006,0-.006,0-.006,0-.006,0-.006,0-.006,0-.006,0-.006,0-.006,0-.006,0-.006,0-.006,0-.006,0-.006,0-.006,0-.006,0-.006,0-.006,0-.006,0-.006,0-.006,0-.006,0-.006,0-.006,0-.006,0-.006,0-.006,0-.006,0-.006,0-.006,0-.006,0-.006,0-.006,0-.006,0-.006,0-.006,0-.006,0-.006,0-.006,0-.006,0-.006,0-.006,0-.006,0-.006,0-.006,0-.006,0-.006,0-.006,0-.006,0-.006,0-.006,0-.006,0-.006,0L1.2,7.2l-.006,0-.006,0-.006,0-.006,0-.006,0-.006,0-.006,0-.006,0-.006,0-.006,0-.006,0-.006,0-.006,0-.006,0-.006,0-.006,0-.006,0-.006,0-.006,0-.006,0-.006,0-.006,0-.006,0-.006,0-.006,0-.006,0-.006,0-.006,0-.006,0-.006,0-.006,0-.006,0-.006,0-.006,0L1,7.1,1,7.094l-.006,0-.006,0-.006,0-.006,0-.006,0-.006,0-.006,0-.006,0-.006,0-.006,0-.006,0-.006,0-.006,0-.006,0-.006,0-.006,0-.006,0-.006,0-.006,0-.006,0-.006,0-.006,0-.006,0-.006,0-.006,0-.006,0-.006,0-.006,0L.829,7,.823,7,.817,7l-.006,0-.006,0-.006,0-.006,0-.006,0-.006,0-.006,0-.006,0-.006,0-.006,0-.006,0-.006,0-.006,0-.006,0-.006,0-.006,0-.006,0-.006,0-.006,0-.006,0-.006,0-.006,0-.006,0-.006,0-.006,0-.006,0-.006,0-.006,0-.006,0-.006,0-.006,0-.006,0-.006,0-.006,0-.006,0-.006,0-.006,0L.6,6.86l-.006,0-.006,0-.006,0-.006,0-.006,0-.006,0-.006,0-.006,0-.006,0-.006,0-.006,0-.006,0-.006,0-.006,0-.006,0-.006,0-.006,0L.5,6.79l-.006,0-.006,0-.006,0-.006,0-.006,0-.006,0-.006,0-.006,0-.006,0-.006,0-.006,0-.006,0-.006,0-.006,0-.006,0-.005,0-.005,0-.005,0-.005,0-.006,0-.006,0-.006,0-.006,0-.006,0-.005,0-.005,0-.005,0-.005,0-.005,0-.005,0-.005,0-.005,0-.005,0-.005,0-.005,0-.005,0-.005,0-.005,0-.005,0-.005,0-.005,0-.005,0-.005,0-.005,0-.005,0-.005,0-.005,0-.005,0-.005,0-.005,0-.005,0-.005,0-.005,0-.005,0L.2,6.55l-.005,0-.005,0-.005,0-.005,0-.005,0-.005,0-.005,0-.005,0-.005,0-.005,0-.005,0-.005,0-.005,0-.005,0L.121,6.477.116,6.472.111,6.467.105,6.462.1,6.457.1,6.452l0,0,0,0L.085,6.442.08,6.436.075,6.431.069,6.426.064,6.421.059,6.416.054,6.411l0,0,0,0L.044,6.4.039,6.4.034,6.39.029,6.385.024,6.379.019,6.374.014,6.369.009,6.364l0-.005,0,0,0,0,0-.005,0,0,0,0,0-.005,0-.005,0-.005,0-.005,0-.005,0-.005,0-.005,0,0,0,0,0-.006,0,0,0,0,0-.006,0-.006,0-.006,0,0,0,0,0-.006,0,0,0,0,0-.006,0,0,0,0,0-.006,0-.006,0-.006,0-.006,0-.006,0,0,0,0,0-.006,0,0,0,0,0-.006,0,0,0,0,0-.006,0,0,0,0,0-.006,0-.006,0-.006,0,0,0,0,0-.006,0,0,0,0,0-.006,0,0,0,0,0-.006,0,0,0,0,0-.006,0,0,0,0,0-.006,0,0,0,0,0-.006,0,0,0,0,0-.006,0,0,0,0,0-.006,0,0,0,0,0-.006,0,0,0,0,0-.006,0,0,0,0,0-.006,0,0,0,0,0-.006,0,0,0,0,0-.006,0,0,0,0,0-.006,0,0,0,0,0-.006,0,0,0,0,0-.006,0,0,0,0,0-.006,0,0,0,0,0-.006,0,0,0,0,0-.006,0,0,0,0,0-.006,0,0,0,0,0-.006,0,0,0,0,0-.006,0,0,0,0,0-.007,0,0,0,0,0-.007,0,0,0,0,0-.007,0,0,0,0,0-.007,0,0,0,0,0-.007,0,0,0,0,0-.007,0,0v0l0-.007,0,0,0,0,0-.007v0l0,0,0-.007,0,0v0l0-.007,0,0,0,0,0-.007,0,0v0l0-.007,0,0,0,0,0-.007,0,0,0,0,0-.007v0l0,0,0-.007,0,0,0,0,0-.007,0,0,0,0,0-.007,0,0,0,0,0-.007,0,0v0l0-.007v0l0,0,0-.007,0,0,0,0,0-.007v0l0,0,0-.007,0,0v0l0-.007,0,0v0l0-.007v0l0,0,0-.007v0l0,0,0-.007v0l0,0,0-.007V5.509l0-.007v0l0,0,0-.007,0,0v0l0-.007v0l0,0,0-.007v0l0,0,0-.007V5.438l0-.007V5.423l0-.007V5.409l0-.007V5.394l0-.007V5.38l0-.007V5.366l0-.007V5.351l0-.007V5.337l0-.007V5.322l0-.007V5.308l0-.007V5.293l0-.007V5.279l0-.007V5.264l0-.007V5.25l0-.007V5.235l0-.007V5.221l0-.007V5.206l0-.007V5.191l0-.007V5.177l0-.007V5.162l0-.007V5.147l0-.007V5.133l0-.007V5.118l0-.007V5.1l0-.007V5.089l0-.007V5.074l0-.007V5.059l0-.007V5.045l0-.007V4.425s0,0,0,0,0,0,0,0v-.01s0,0,0,0V3.7l0-.007V3.689l0-.007V3.675l0-.007V3.661l0-.007V3.648l0-.007V3.634l0-.007V3.62l0-.007V3.607l0-.007V3.593l0-.007V3.58l0-.007V3.566l0-.007V3.553l0-.007V3.539l0-.007V3.526l0-.007V3.513l0-.007V3.5l0-.007V3.486l0-.007V3.473l0-.007V3.459l0-.007V3.446l0-.007V3.433l0-.007V3.419l0-.007V3.406l0-.007V3.393l0-.007V3.38l0-.007V3.367l0-.007V3.354l0-.007V3.34l0-.007V3.327l0-.007V3.314l0-.007V3.3l0-.007V3.288l0-.007V3.275l0-.007V3.262l0-.006V3.249l0-.006v0l0,0,0-.006V3.224l0-.006V3.211l0-.006v0l0,0,0-.006V3.185l0-.006V3.172l0-.006V3.16l0-.006V3.147l0-.006V3.134l0-.006V3.121l0-.006V3.109l0-.006,0,0v0l0-.006v0l0,0,0-.006,0,0v0l0-.006v0l0,0,0-.006V3.046l0-.006,0,0v0l0-.006V3.021l0-.006V3.008L-.44,3V3l0-.006,0,0v0l0-.006V2.971l0-.006V2.959l0-.006,0,0v0l0-.006v0l0,0,0-.006v0l0,0,0-.006v0l0,0,0-.006v0l0,0,0-.006,0,0v0l0-.006v0l0,0,0-.006v0l0,0,0-.006v0l0,0,0-.006v0l0,0,0-.006v0l0,0,0-.006v0l0,0,0-.006,0,0v0l0-.006,0,0v0l0-.006v0l0,0,0-.006,0,0v0l0-.006,0,0v0l0-.006,0,0v0l0-.006,0,0v0l0-.006,0,0v0l0-.006,0,0v0l0-.006v0l0,0,0-.006,0,0v0l0-.006,0,0v0l0-.006v0l0,0,0-.006v0l0,0,0-.006,0,0v0l0-.006,0-.006,0-.006v0l0,0,0-.006,0,0v0l0-.006v0l0,0,0-.006v0l0,0,0-.006,0-.006,0-.006,0,0v0l0-.006,0-.006,0-.006h0l0,0,0-.006,0-.006,0-.006,0-.006,0-.006,0,0,0,0,0-.006,0,0v0l0-.006,0,0,0,0,0-.006,0,0,0,0,0-.006,0-.006,0-.006,0,0,0,0,0-.006,0,0,0,0,0-.006v0l0,0,0-.006,0,0,0,0,0-.006,0-.006,0-.005,0-.005,0-.005,0-.005,0-.005,0,0,0,0,0-.005,0-.005,0-.005,0-.005,0-.005,0,0,0,0,0-.005,0,0,0,0,0-.005,0-.005,0-.005,0-.005,0-.005,0-.005,0-.005v0l0,0,0-.005,0-.005,0-.005,0-.005,0-.005v0l0,0,0-.005,0-.005,0-.005,0,0v0l0-.005,0,0,0,0,0-.005,0-.005,0-.005,0,0,0,0,0-.005,0,0,0,0,0-.005,0-.005,0-.005,0,0,0,0,0-.005,0-.005,0-.005,0-.005,0-.005,0-.005,0-.005v0l0,0,0-.005,0-.005,0-.005L.1,2.1.1,2.1l0,0v0l0-.005,0-.005,0-.005,0,0v0l0-.005,0-.005,0-.005,0-.005,0-.005,0-.005,0-.005,0-.005,0-.005v0l0,0,0-.005,0-.005L.176,2,.18,2l0-.005,0,0,0,0,0-.005,0,0,0,0,0,0,0,0,0,0,0,0,0,0,0,0,0,0v0l0,0,0,0,0,0,0,0,0,0,0,0,0,0,0,0,0,0,0,0,0,0,0,0,0,0,0,0,0,0v0l0,0,0,0,0,0,0,0,0,0,0,0,0,0,0,0,0,0,0,0,0,0,0,0,0,0,0,0,0,0,0,0,0,0,0,0,0,0,0,0,0,0,0,0,0,0,0,0,0,0,0,0,0,0,0,0,0,0,0,0,0,0,0,0,0,0,0,0,0,0,0,0,0,0,0,0,0,0,0,0,0,0,0,0,0,0,0,0,0,0,0,0,0,0,0,0,0,0,0,0,0,0,0,0h0l0,0,0,0,0,0,0,0,0,0,0,0,0,0,0,0,0,0,0,0,0,0,0,0,0,0,0,0,0,0,0,0,0,0,0,0,0,0,0,0,0,0,0,0,0,0,0,0,0,0,0,0,0,0,0,0,0,0,0,0,0,0,0,0,0,0,0,0,0,0,0,0,0,0,0,0,0,0,0,0,0,0,0,0,0,0,0,0,0,0,0,0,0,0,0,0,0,0,0,0,0,0,0,0,0,0,0,0,0,0,0,0,0,0,0,0,0,0,0,0,0,0,0,0,0,0,0,0,0,0,0,0,0,0,0,0,0,0,0,0,0,0,0,0,0,0,0,0,0,0,0,0,0,0,0,0,0,0,0,0,0,0,0,0,0,0,0,0,0,0,0,0,0,0,0,0,0,0,0,0,0,0,0,0,0,0,0,0,0,0,0,0,0,0,0,0,0,0,0,0,0,0,0,0,0,0,0,0,0,0,0,0,0,0,0,0,0,0,0,0,0,0,0,0,0,0,0,0,0,0,0,0,0,0,0,0,0,0,0,0,0,0,0,0,0,0,0,0,0,0,0,0,0,0,0,0,0,0,0,0,0,0,0,0,0,0,0,0,0,0,0,0,0,0,0,0,0,0,0,0,0,0,0,0,0,0,0,0,0,0,0,0,0,0,0,0,0,0,0,0,0,0,0,0,0,0,0,0,0,0,0,0,0,0,0,0,0,0,0,0,0,0,0,0,0,0,0,0,0,0,0,0,0,0,0,0,0,0,0,0,0,0,0,0,0,0,0,0,0,0,0,0,0,0,.005,0,.005,0,.005,0,.005,0,0,0,0,0,0,0,0,0,0,0,0,0,0,0,.005,0,0,0,.005,0,.005,0,.005,0,.005,0,.005,0,.005,0,.005,0,.005,0,.005,0,.005,0,.005,0,.005,0,.005,0,.005,0,.005,0L1.5.8,1.5.8l.005,0,.005,0,.005,0,.005,0,.005,0,.005,0,.005,0,.005,0,.005,0,.005,0,.005,0,.005,0,.005,0,.005,0,.005,0,.005,0,.005,0,.005,0,.005,0,.005,0,.005,0,.005,0,.005,0,.005,0,.005,0,.005,0,.005,0,.005,0L1.65.7l.005,0L1.66.7l.005,0,.005,0,.005,0,.005,0,.005,0,.005,0,.005,0,.005,0,.005,0,.005,0,.005,0,.005,0,.005,0,.005,0,.005,0,.005,0,.005,0,.005,0,.005,0,.005,0,.005,0,.005,0,.005,0,.005,0,.005,0,.005,0,.005,0L1.8.6,1.81.6l.005,0,.005,0,.005,0,.005,0,.005,0,.005,0,.005,0,.005,0,.005,0,.005,0,.005,0,.005,0,.005,0,.005,0,.005,0,.005,0,.005,0,.005,0,.005,0,.005,0,.005,0,.005,0,.005,0,.005,0,.005,0,.005,0,.005,0,.005,0,.005,0,.005,0,.005,0,.005,0,.005,0,.005,0,.005,0L2,.489,2,.486l.005,0,.005,0,.005,0,.005,0,.005,0,.005,0,.005,0,.005,0,.005,0,.005,0,.005,0,.005,0,.005,0,.005,0,.005,0,.005,0,.005,0,.005,0,.005,0,.005,0,.005,0,.005,0,.005,0,.005,0,.005,0,.005,0,.005,0,.005,0,.005,0,.005,0,.005,0,.005,0,.005,0,.005,0,.005,0,.005,0,.005,0,.005,0,.005,0,.005,0,.005,0,.005,0,.005,0,.005,0,.005,0,.005,0,.005,0,.005,0,.005,0,.005,0,.005,0,.005,0,.005,0,.005,0,.005,0,.005,0,.005,0,.005,0,.005,0,.005,0,.005,0,.005,0,.005,0,.005,0,.005,0,.005,0,.005,0,.005,0,.005,0,.005,0,.005,0,.005,0,.005,0,.005,0,.005,0,.005,0,.005,0,.005,0,.005,0,.005,0,.005,0,.005,0,.005,0,.005,0,.005,0,.005,0,.005,0,.005,0,.005,0,.005,0,.005,0,.005,0,.005,0,.005,0,.005,0,.005,0,.005,0,.005,0,.005,0,.005,0,.005,0,.005,0,.005,0,.005,0,.005,0,.005,0,.005,0,.005,0,.005,0,.005,0,.005,0,.005,0,.005,0,.005,0,.005,0,.005,0,.005,0,.005,0,.005,0,.005,0,.005,0,.005,0,.005,0,.005,0,.005,0,.005,0,.005,0,.005,0L2.7.13l.005,0,.005,0,.005,0,.005,0,.005,0,.005,0,.005,0,.005,0,.005,0L2.75.1l.005,0,.005,0,.005,0,.005,0,.005,0,.005,0,.005,0,.005,0,.006,0,.006,0,.005,0,.006,0,.006,0,.006,0,.006,0,.006,0,.006,0,.006,0,.005,0,.005,0,.005,0,.005,0,.005,0,.006,0,.005,0,.006,0L2.9.04l.006,0,.006,0,.006,0,.006,0,.006,0,.006,0,.006,0,.006,0,.006,0,.006,0,.006,0,.006,0,.006,0,.006,0,.006,0,.006,0,.006,0L3,0,3,0l.006,0,.006,0,.006,0,.006,0,.006,0,.006,0,.006,0,.006,0,.006,0,.006,0,.006,0,.006,0,.006,0,.006,0,.006,0,.006,0,.006,0,.006,0,.006,0,.006,0,.006,0,.006,0,.006,0,.006,0,.006,0,.006,0,.006,0,.006,0,.006,0,.006,0,.006,0,.006,0,.006,0,.006,0,.006,0,.006,0,.006,0,.006,0,.006,0,.006,0,.006,0,.006,0,.006,0,.006,0,.006,0,.006,0,.006,0,.006,0,.006,0,.006,0,.006,0,.006,0,.006,0,.006,0,.006,0,.006,0,.006,0,.006,0,.006,0,.006,0,.006,0,.006,0,.006,0,.006,0,.006,0,.006,0,.006,0,.006,0,.006,0,.006,0,.006,0,.006,0,.006,0,.006,0,.006,0,.006,0,.006,0,.006,0,.006,0,.006,0,.006,0,.006,0,.006,0,.006,0,.006,0,.006,0,.006,0,.006,0,.006,0,.006,0,.006,0,.006,0,.006,0,.006,0,.006,0,.006,0,.006,0,.006,0,.006,0,.006,0,.006,0,.006,0,.006,0,.006,0,.006,0,.006,0,.006,0,.006,0,.006,0,.006,0,.006,0,.006,0,.006,0,.006,0,.006,0,.006,0,.006,0,.006,0,.006,0,.006,0,.006,0,.006,0,.006,0,.006,0,.006,0,.006,0,.006,0,.006,0,.006,0,.006,0,.006,0,.006,0,.006,0,.006,0,.006,0,.006,0,.006,0,.006,0,.006,0,.006,0,.006,0,.006,0,.006,0,.006,0,.006,0,.006,0,.006,0,.006,0,.006,0,.006,0,.006,0,.006,0,.006,0,.006,0,.006,0,.006,0,.006,0,.006,0,.006,0,.006,0,.006,0,.006,0,.006,0,.006,0,.006,0,.006,0,.006,0,.006,0,.006,0,.006,0,.006,0,.006,0,.006,0,.006,0,.006,0L4-.351,4-.353l.006,0,.006,0,.006,0,.006,0,.006,0,.006,0,.006,0,.006,0,.006,0,.006,0,.006,0,.006,0,.006,0,.006,0,.006,0,.006,0,.006,0,.006,0,.006,0,.006,0,.006,0,.006,0,.006,0,.006,0,.006,0,.006,0,.006,0,.006,0,.006,0,.006,0,.006,0,.006,0,.006,0,.006,0,.006,0,.006,0,.006,0,.006,0,.006,0,.006,0,.006,0,.006,0,.006,0H9.436l.006,0,.006,0h.006l.006,0,.006,0,.006,0,.006,0,.006,0,.006,0,.006,0,.006,0,.006,0,.006,0,.006,0,.006,0,.006,0,.006,0,.006,0,.006,0,.006,0,.006,0,.006,0,.006,0,.006,0,.006,0,.006,0,.006,0,.006,0,.006,0,.006,0,.006,0,.006,0,.006,0,.006,0,.006,0,.006,0,.006,0,.006,0,.006,0,.006,0,.006,0,.006,0,.006,0,.006,0,.006,0,.006,0,.006,0,.006,0,.006,0,.006,0,.006,0,.006,0,.006,0,.006,0,.006,0,.006,0,.006,0,.006,0,.006,0,.006,0,.006,0,.006,0,.006,0,.006,0,.006,0,.006,0,.006,0,.006,0,.006,0,.006,0,.006,0,.006,0,.006,0,.006,0,.006,0,.006,0,.006,0,.006,0,.006,0,.006,0,.006,0,.006,0,.006,0,.006,0,.006,0,.006,0,.006,0,.006,0,.006,0,.006,0,.006,0,.006,0,.006,0,.006,0,.006,0,.006,0,.006,0,.006,0,.006,0,.006,0,.006,0,.006,0,.006,0,.006,0,.006,0,.006,0,.006,0,.006,0,.006,0,.006,0,.006,0,.006,0,.006,0,.006,0,.006,0,.006,0,.006,0,.006,0,.006,0,.006,0,.006,0,.006,0,.006,0,.006,0,.006,0,.006,0,.006,0,.006,0,.006,0,.006,0,.006,0,.006,0,.006,0,.006,0,.006,0,.006,0,.006,0,.006,0,.006,0,.006,0,.006,0,.006,0,.006,0,.006,0,.006,0,.006,0,.006,0,.006,0,.006,0,.006,0,.006,0,.006,0,.006,0,.006,0,.006,0,.006,0,.006,0,.006,0,.006,0,.006,0,.006,0,.006,0,.006,0,.006,0,.006,0,.006,0,.006,0,.006,0,.006,0,.006,0,.006,0,.006,0,.006,0,.006,0,.006,0,.006,0,.006,0,.006,0,.006,0,.006,0,.006,0,.006,0,.006,0,.006,0,.006,0,.006,0,.006,0,.006,0,.006,0,.006,0,.006,0,.006,0,.006,0,.006,0,.006,0,.006,0,.006,0,.006,0,.006,0,.006,0,.006,0,.006,0,.006,0,.006,0,.006,0,.006,0,.006,0,.006,0,.006,0,.006,0,.006,0,.006,0,.006,0,.006,0,.006,0,.006,0,.006,0,.006,0,.006,0,.006,0,.006,0,.006,0L10.7,0,10.7,0l.006,0,.006,0,.006,0,.006,0,.006,0,.006,0,.006,0,.006,0,.006,0,.006,0,.006,0,.006,0,.006,0,.006,0,.006,0,.006,0,.005,0,.006,0,.005,0,.005,0,.005,0,.005,0,.005,0,.006,0,.006,0,.006,0,.006,0,.006,0,.006,0,.006,0,.005,0,.006,0,.005,0,.005,0,.005,0,.005,0,.005,0,.005,0,.005,0,.005,0,.005,0,.005,0,.005,0,.005,0,.005,0,.005,0,.005,0,.005,0,.005,0,.005,0,.005,0,.005,0,.005,0L11,.13l.005,0,.005,0,.005,0,.005,0,.005,0,.005,0,.005,0,.005,0,.005,0,.005,0,.005,0,.005,0,.005,0,.005,0,.005,0,.005,0,.005,0,.005,0,.005,0,.005,0,.005,0,.005,0,.005,0,.005,0,.005,0,.005,0,.005,0,.005,0,.005,0,.005,0,.005,0,.005,0,.005,0,.005,0,.005,0,.005,0,.005,0,.005,0,.005,0,.005,0,.005,0,.005,0,.005,0,.005,0,.005,0,.005,0,.005,0,.005,0,.005,0,.005,0,.005,0,.005,0,.005,0,.005,0,.005,0,.005,0,.005,0,.005,0,.005,0,.005,0,.005,0,.005,0,.005,0,.005,0,.005,0,.005,0,.005,0,.005,0,.005,0,.005,0,.005,0,.005,0,.005,0,.005,0,.005,0,.005,0,.005,0,.005,0,.005,0,.005,0,.005,0,.005,0,.005,0,.005,0,.005,0,.005,0,.005,0,.005,0,.005,0,.005,0,.005,0,.005,0,.005,0,.005,0,.005,0,.005,0,.005,0,.005,0,.005,0,.005,0,.005,0,.005,0,.005,0,.005,0,.005,0,.005,0,.005,0,.005,0,.005,0,.005,0,.005,0,.005,0,.005,0,.005,0,.005,0,.005,0,.005,0,.005,0,.005,0,.005,0,.005,0,.005,0,.005,0,.005,0,.005,0,.005,0,.005,0,.005,0,.005,0,.005,0,.005,0,.005,0,.005,0,.005,0,.005,0,.005,0,.005,0,.005,0,.005,0,.005,0,.005,0,.005,0,.005,0,.005,0,.005,0,.005,0,.005,0,.005,0,.005,0,.005,0,.005,0,.005,0,.005,0,.005,0,.005,0,.005,0,.005,0,.005,0,.005,0,.005,0,.005,0,.005,0,.005,0,.005,0,.005,0,.005,0,.005,0,.005,0,.005,0,.005,0,.005,0,.005,0,.005,0,.005,0,.005,0,.005,0,.005,0,.005,0,.005,0,.005,0,.005,0,.005,0,.005,0,.005,0,.005,0,.005,0,.005,0,.005,0,.005,0,.005,0,.005,0,.005,0,.005,0,.005,0,.005,0,.005,0,.005,0,.005,0,.005,0,.005,0,.005,0,.005,0,.005,0,.005,0,.005,0,.005,0,.005,0,.005,0,.005,0,.005,0,.005,0,.005,0,.005,0,.005,0,.005,0,.005,0,.005,0,.005,0,.005,0,.005,0,.005,0,.005,0,.005,0,.005,0,.005,0,.005,0L12.2.8l.005,0,.005,0,.005,0,.005,0,.005,0,.005,0,.005,0,.005,0,.005,0,.005,0,.005,0,.005,0,.005,0,.005,0,.005,0,.005,0,.005,0,0,0,.005,0,0,0,0,0,.005,0,.005,0,.005,0,.005,0,.005,0,.005,0,.005,0,.005,0,0,0,.005,0,0,0,0,0,0,0,0,0,0,0,0,0,0,0,0,0,0,0,0,0,0,0,0,0,0,0,0,0,0,0,0,0,0,0,0,0,0,0,0,0,0,0,0,0,0,0,0,0,0,0,0,0,0,0,0,0,0,0,0,0,0,0,0,0,0,0,0,0,0,0,0,0,0,0,0,0,0,0,0,0,0,0,0,0,0,0,0,0,0,0,0,0,0,0,0,0,0,0,0,0,0,0,0,0,0,0,0,0,0,0,0,0,0,0,0,0,0,0,0,0,0,0,0,0,0,0,0,0,0,0,0,0,0,0,0,0,0,0,0,0,0,0,0,0,0,0,0,0,0,0,0,0,0,0,0,0,0,0,0,0,0,0,0,0,0,0,0,0,0,0,0,0,0,0,0,0,0,0,0,0,0,0,0,0,0,0,0,0,0,0,0,0,0,0,0,0,0,0,0,0,0,0,0,0,0,0,0,0,0,0,0,0,0,0,0,0,0,0,0,0,0,0,0,0,0,0,0,0,0,0,0,0,0,0,0,0,0,0,0,0,0,0,0,0,0,0,0,0,0,0,0,0,0,0,0,0,0,0,0,0,0,0,0,0,0,0,0,0,0,0,0,0,0,0,0,0,0,0,0,0,0,0,0,0,0,0,0,0,0,0,0,0,0,0,0,0,0,0,0,0,0,0,0,0,0,0,0,0,0,0,0,0,0,0,0,0,0,0,0,0,0,0,0,0,0,0,0,0,0,0,0,0,0,0,0,0,0,0,0,0,0,0,0,0,0,0,0,0,0,0,0,0,0,0,0,0,0,0,0,0,0,0,0,0,0,0,0,0,0,0,0,0,0,0,0,0,0,0,0,0,0,0,0,0,0,0,0,0,0,0,0,0,0,0,0,0,0,0,0,0,0,0,0,0,0,0,0,0,0,0,0,0,0,0,0,0,0,0,0,0,0,0,0,0,0,0,0,0,0,0,0,0,0,0,0,0,0,0,0,0,0,0,0,0,0,0,0,0,0,0,0,0,0,0,0,0,0,0,0,0,0,0,0,0,0,0,0,0,0,0,0,0,0,0,0,0,0,0,0,0,0,0,0,0,0,0,0,0,0,0,0,0,0,0,0,0,0,0,0,0v0l0,0,0,0,0,.005,0,.005,0,.005,0,.005,0,.005,0,.005v0l0,0,0,.005,0,.005,0,.005,0,.005,0,.005,0,.005,0,.005,0,.005,0,.005,0,0,0,0,0,.005,0,0,0,0,0,.005,0,0,0,0,0,.005,0,.005,0,.005,0,.005,0,.005,0,.005,0,.005,0,.005,0,.005,0,0v0l0,.005,0,.005,0,.005,0,.005,0,.005,0,.005,0,.005,0,.005,0,.005,0,.005,0,.005v0l0,0,0,.005,0,.005,0,.005,0,0,0,0,0,.005v0l0,0,0,.005,0,0h0l0,.005,0,.005,0,.005,0,0,0,0,0,.005,0,0h0l0,.005v0l0,0,0,.005,0,0,0,0,0,.005,0,.005,0,.005,0,.005,0,.005v0l0,0,0,.005,0,.005,0,.005,0,.005,0,.005v0l0,0,0,.005,0,.005,0,.005,0,0,0,0,0,.006,0,.006,0,.006,0,.006,0,.006,0,0v0l0,.006,0,.006,0,.006,0,.006,0,.006,0,0v0l0,.006,0,.006,0,.006,0,0v0l0,.006,0,0v0l0,.006,0,.006,0,.006,0,0v0l0,.006,0,.006,0,.006v0l0,0,0,.006,0,0,0,0,0,.006,0,.006,0,.006,0,.006,0,.006,0,0,0,0,0,.006v0l0,0,0,.006,0,0v0l0,.006,0,0v0l0,.006,0,.006,0,.006,0,0,0,0,0,.006,0,0v0l0,.006,0,0,0,0,0,.006v0l0,0,0,.006,0,0,0,0,0,.006v0l0,0,0,.006v0l0,0,0,.006v0l0,0,0,.006,0,0v0l0,.006,0,0v0l0,.006v0l0,0,0,.006,0,0v0l0,.006,0,0,0,0,0,.006,0,0,0,0,0,.006,0,0v0l0,.006,0,0v0l0,.006v0l0,0,0,.006v0l0,0,0,.006,0,0v0l0,.006,0,0v0l0,.006,0,0v0l0,.006v.006l0,.006v0l0,0,0,.006,0,0v0l0,.006v0l0,0,0,.006,0,0v0l0,.006v0l0,0,0,.006,0,0v0l0,.006,0,0v0l0,.006v0l0,0,0,.006V3l0,.006,0,0v0l0,.006v0l0,0,0,.006v.006l0,.006v.006l0,.006,0,0v0l0,.006v0l0,0,0,.006v0l0,0,0,.006V3.1l0,.006,0,0v0l0,.006v.006l0,.006v.006l0,.006V3.15l0,.006v.006l0,.006v.006l0,.006v.006l0,.006V3.2l0,.006v.006l0,.006v.006l0,.006V3.24l0,.006v.007l0,.007v.007l0,.007v.007l0,.007v.007l0,.007V3.3l0,.007v.007l0,.007v.007l0,.007v.007l0,.007v.007l0,.007V3.37l0,.007v.007l0,.007V3.4l0,.007V3.41l0,.007v.007l0,.007v.007l0,.007V3.45l0,.007v.007l0,.007v.007l0,.007V3.49l0,.007V3.5l0,.007v.007l0,.007V3.53l0,.007v.007l0,.007v.007l0,.007v.007l0,.007v.007l0,.007V3.6l0,.007v.007l0,.007v.007l0,.007v.007l0,.007v.007l0,.007v.007l0,.007V3.68l0,.007v.7s0,0,0,0V4.4s0,0,0,0,0,0,0,0v.611l0,.007v.007l0,.007v.007l0,.007v.007l0,.007v.007l0,.007V5.1l0,.007V5.11l0,.007v.007l0,.007V5.14l0,.007v.007l0,.007v.007l0,.007v.007l0,.007V5.2l0,.007v.007l0,.007v.007l0,.007v.007l0,.007v.007l0,.007v.007l0,.007v.007l0,.007V5.3l0,.007v.007l0,.007v.007l0,.007v.007l0,.007v.007l0,.007v.007l0,.007v.007l0,.007V5.4l0,.007,0,0v0l0,.007v.007l0,.007v.007l0,.007,0,0v0l0,.007,0,0v0l0,.007v0l0,0,0,.007V5.5l0,.007v.007l0,.007,0,0v0l0,.007v0l0,0,0,.007v0l0,0,0,.007v0l0,0,0,.007,0,0v0l0,.007,0,0v0l0,.007v0l0,0,0,.007,0,0v0l0,.007,0,0,0,0,0,.007,0,0,0,0,0,.007,0,0,0,0,0,.007,0,0,0,0,0,.007,0,0,0,0,0,.007,0,0,0,0,0,.007,0,0,0,0,0,.007,0,0v0l0,.007,0,0,0,0,0,.007,0,0,0,0,0,.007,0,0,0,0,0,.007,0,0,0,0,0,.007,0,0,0,0,0,.007,0,0,0,0,0,.007,0,0,0,0,0,.007,0,0,0,0,0,.007,0,0,0,0,0,.007,0,0,0,0,0,.006,0,0,0,0,0,.006,0,0,0,0,0,.006,0,0,0,0,0,.006,0,0,0,0,0,.006,0,0,0,0,0,.006,0,0,0,0,0,.006,0,0,0,0,0,.006,0,0,0,0,0,.006,0,0,0,0,0,.006,0,0,0,0,0,.006,0,0,0,0,0,.006,0,0,0,0,0,.006,0,0,0,0,0,.006,0,0,0,0,0,.006,0,0,0,0,0,.006,0,0,0,0,0,.006,0,0,0,0,0,.006v0l0,0,0,.006,0,0,0,0,0,.006,0,0,0,0,0,.006,0,0,0,0,0,.006,0,0,0,0,0,.006,0,0,0,0,0,.006,0,.006,0,.006,0,0,0,0,0,.006,0,0,0,0,0,.006,0,0,0,0,0,.006,0,.006,0,.006,0,0,0,0,0,.006,0,0,0,0,0,.006,0,0,0,0,0,.006,0,.006,0,.006,0,.006,0,.006,0,0,0,0,0,.006,0,0,0,0,0,.006,0,.005,0,.005,0,.005,0,.005,0,.005,0,.005,0,.005,0,.005,0,.005,0,.005,0,0,0,0-.005.005,0,0,0,0-.005.005-.005.005-.005.005-.005.005-.005.005-.005.005-.005.005,0,0,0,0-.005.005-.005.005-.005.005,0,0,0,0L13.6,6.43l-.005.005-.005.005-.005.005-.005.005,0,0,0,0-.005.005-.005,0-.005,0-.005,0-.005,0-.005,0-.005,0-.005,0-.005,0-.005,0-.005,0-.005,0-.005,0-.005,0-.005,0-.005,0-.005,0-.005,0-.005,0-.005,0-.005,0-.005,0-.005,0-.005,0-.005,0-.005,0-.005,0-.005,0-.005,0-.005,0-.005,0-.005,0-.005,0-.005,0-.005,0-.005,0-.005,0-.005,0-.005,0-.005,0-.005,0-.005,0-.005,0-.005,0-.005,0-.005,0-.005,0-.005,0-.005,0-.005,0-.006,0-.005,0-.005,0-.005,0-.005,0-.005,0-.005,0-.006,0-.006,0-.006,0-.006,0-.006,0-.006,0-.006,0-.006,0-.006,0-.006,0-.006,0-.006,0-.006,0-.006,0-.006,0-.006,0-.006,0-.006,0-.006,0-.006,0-.006,0-.006,0-.006,0-.006,0-.006,0-.006,0-.006,0-.006,0-.006,0-.006,0-.006,0-.006,0-.006,0-.006,0-.006,0-.006,0-.006,0-.006,0-.006,0-.006,0-.006,0-.006,0-.006,0-.006,0-.006,0-.006,0-.006,0L13,6.9l-.006,0-.006,0-.006,0-.006,0-.006,0-.006,0-.006,0-.006,0-.006,0-.006,0-.006,0-.006,0-.006,0-.006,0-.006,0-.006,0-.006,0-.006,0-.006,0-.006,0-.006,0-.006,0-.006,0-.006,0-.006,0-.006,0-.006,0-.006,0-.006,0-.006,0-.006,0-.006,0-.006,0-.006,0-.006,0-.006,0-.006,0-.006,0-.006,0-.006,0-.006,0-.006,0-.006,0-.006,0-.006,0-.006,0-.006,0-.006,0-.006,0-.006,0-.006,0-.006,0-.006,0-.006,0-.006,0-.006,0-.006,0-.006,0-.006,0-.006,0-.006,0-.006,0-.006,0-.006,0-.006,0-.006,0-.006,0-.006,0-.006,0-.006,0-.006,0-.006,0-.006,0-.006,0-.006,0-.006,0-.006,0-.006,0-.006,0-.006,0-.006,0-.006,0-.006,0-.006,0-.006,0-.006,0-.006,0-.006,0-.006,0-.006,0-.006,0-.006,0-.006,0-.006,0-.006,0-.006,0-.006,0-.006,0-.006,0-.006,0-.006,0-.006,0-.006,0-.006,0-.006,0-.006,0-.006,0-.006,0-.006,0-.006,0-.006,0-.006,0-.006,0-.006,0-.006,0-.006,0-.006,0-.006,0-.006,0-.006,0-.006,0-.006,0-.006,0-.006,0-.006,0-.006,0-.006,0-.006,0-.006,0-.006,0-.006,0-.006,0-.006,0-.006,0-.006,0-.006,0-.006,0-.006,0-.006,0-.006,0-.006,0-.006,0-.006,0-.006,0-.006,0-.006,0-.006,0-.006,0-.006,0-.006,0-.006,0-.006,0-.006,0-.006,0-.006,0-.006,0-.006,0-.006,0-.006,0-.006,0-.006,0-.006,0-.006,0-.006,0-.006,0-.006,0-.006,0-.006,0-.006,0-.006,0-.006,0-.006,0-.006,0L12,7.39l-.006,0-.006,0-.006,0-.006,0-.006,0-.006,0-.006,0-.006,0-.006,0-.006,0-.006,0-.006,0-.006,0-.006,0-.006,0-.006,0-.006,0-.006,0-.006,0-.006,0-.006,0-.006,0-.006,0-.006,0-.006,0-.006,0-.006,0-.006,0-.006,0-.006,0-.006,0-.006,0-.006,0-.006,0-.006,0-.006,0-.006,0-.006,0-.006,0-.006,0-.006,0-.006,0-.006,0-.006,0-.006,0-.006,0-.006,0-.006,0-.006,0-.006,0-.006,0-.006,0-.006,0-.006,0-.006,0-.006,0-.006,0-.006,0-.006,0-.006,0-.006,0-.006,0-.006,0-.006,0-.006,0-.006,0-.006,0-.006,0-.006,0-.006,0-.006,0-.006,0-.006,0-.006,0-.006,0-.006,0-.006,0-.006,0-.006,0-.006,0-.006,0-.006,0-.006,0-.006,0-.006,0-.006,0-.006,0-.006,0-.006,0-.006,0-.006,0-.006,0-.006,0-.006,0-.006,0-.006,0-.006,0-.006,0-.006,0-.006,0-.006,0-.006,0-.006,0-.006,0-.006,0-.006,0-.006,0-.006,0-.006,0-.006,0-.006,0-.006,0-.006,0-.006,0-.006,0-.006,0-.006,0-.006,0-.006,0-.006,0-.006,0-.006,0-.006,0H6.861Zm-.033-1.5H10.88l.01,0,.01,0,.01,0h.039l.01,0,.01,0,.01,0,.01,0,.01,0,.01,0,.01,0h.01l.01,0,.01,0,.01,0,.01,0,.01,0,.01,0,.009,0,.009,0,.009,0,.009,0,.01,0,.01,0,.009,0,.009,0,.009,0,.009,0,.009,0,.009,0,.009,0,.009,0,.009,0,.009,0,.009,0,.009,0,.009,0,.009,0,.009,0,.009,0,.009,0,.009,0,.009,0,.009,0,.009,0,.009,0,.009,0,.009,0,.009,0,.009,0,.009,0,.009,0,.009,0,.009,0,.009,0,.009,0,.009,0,.009,0,.009,0,.009,0,.009,0,.009,0,.009,0,.009,0,.009,0,.009,0,.009,0,.009,0,.009,0,.009,0,.009,0,.009,0,.009,0,.009,0,.009,0,.009,0,.009,0,.009,0,.009,0,.009,0,.009,0,.009,0,.009,0,.009,0,.009,0,.009,0,.009,0,.009,0,.009,0,.009,0,.009,0,.008,0,.008,0,.009,0,.009,0,.008,0,.008,0,.008,0,.008,0,.008,0,.008,0,.008,0,.008,0,.008,0,.008,0,.008,0,.008,0,.008,0,.008,0,.008,0,.008,0,.008,0,.008,0,.008,0,.008,0,.008,0,.008,0,.008,0,.008,0,.008,0,.008,0,.008,0,.008,0,.008,0,.008,0,.008,0,.008,0,.008,0,.008,0,.008,0,.008,0,.008,0,.008,0,.008,0,.008,0,.008,0,.008,0,.007,0,.007,0,.007,0,.007,0,.007,0,.007,0,.007,0,.007,0,.007,0,.007,0,.007,0,.007,0,.007,0,.007,0,.007,0,.007,0,.007,0,.007,0,.007,0,.007,0,.007,0,.007,0,.007,0,.007,0,.007,0,.007,0,.007,0,.007,0,.007,0,.007,0,.007,0,0,0,.006,0,.007-.005,0,0,0,0,.006,0,.006,0,.006,0,0,0,0,0,.006,0,0,0,0,0,.005,0,0,0,0,0,0,0,0,0,.006,0,0,0,0,0,0,0,0,0,.006,0,0,0,0,0,0,0,.006-.005,0,0,0,0,0,0,.005,0,0,0,0,0,.005,0,0,0,0,0,0,0,0,0,0,0,0,0,0,0,0,0,.006-.005.006-.005,0,0,0,0,0,0,0,0,0,0,.005,0,0,0,0,0,0,0,0,0,0,0,0,0,0,0,0,0,0,0,0,0,0,0,0,0,0,0,0,0,0,0,0,0,0,0,0,0,0,0,0,0,0,0,0,0,0,0,0,0,0,0,0,0,0,0,0,0,0,0,0,0,0,0,0,0,0,0,0,0,0,0,0,0,0,0,0,0,0,0,0,0,0,0,0,0,0,0,0,0,0,0,0,0,0,0,0,0,0,0,0,0,0,0,0,0v0l0,0,0,0,0,0,0,0,0,0,0,0,0,0,0,0,0,0,0,0,0,0,0,0,0,0,0,0,0,0v0l0,0,0,0,0,0,0,0,0,0v0l0,0,0,0,0,0v0l0,0,0,0,0,0v0l0,0v0l0,0v0l0,0v0l0,0v0l0,0v0l0,0,0,0,0,0v0l0,0v0l0,0v0l0,0v0l0,0v0l0,0v0l0,0,0,0,0,0v0l0,0v0l0,0v0l0,0v0l0,0v0l0,0v0l0,0v0l0,0V5l0,0V5l0,0v0l0,0v0l0,0v0l0,0v0l0,0v0l0,0v0l0,0v0l0,0v0l0,0v0l0,0V4.928l0,0v0l0,0V4.909l0,0v0l0,0V4.415s0,0,0,0V4.4s0,0,0,0v0s0,0,0,0v-.57l0,0v0l0,0V3.783l0,0V3.768l0,0v0l0,0V3.745l0,0v0l0,0v0l0,0v0l0,0v0l0,0v0l0,0v0l0,0v0l0,0v0l0,0V3.671l0,0,0,0v0l0,0v0l0,0v0l0,0v0l0,0v0l0,0v0l0,0v0l0,0,0,0,0,0v0l0,0,0,0,0,0v0l0,0,0,0,0,0,0,0,0,0,0,0,0,0v0l0,0,0,0,0,0,0,0,0,0,0,0,0,0,0,0,0,0,0,0,0,0,0,0,0,0v0l0,0,0,0,0,0,0,0,0,0,0,0,0,0,0,0,0,0,0,0,0,0,0,0,0,0,0,0,0,0,0,0,0,0,0,0,0,0,0,0,0,0,0,0,0,0,0,0,0,0,0,0,0,0,0,0,0,0,0,0,0,0,0,0,0,0,0,0,0,0,0,0,0,0,0,0,0,0,0,0,0,0,0,0,0,0,0,0,0,0,0,0,0,0,0,0,0,0,0,0,0,0,0,0,0,0,0,0,0,0,0,0,0,0,0,0,0,0,0,0,0,0,0,0,0,0,0,0,0,0,0,0,0,0,0,0,0,0,0,0,0,0,0,0,0,0,0,0,0,0,0,0,0,0,0,0,0,0,0,0,0,0,0,0,0,0,0,0,0,0,0,0,0,0,0,0,0,0,0,0,0,0,0,0,0,0,0,0,0,0,0,0,0,0,0,0,0,0,0,0,0,0,0,0,0,0,0,0,0,0,0,0,0,0,0,0,0,0,0,0,0,0,0,0,0,0,0,0,0,0,0,0,0,0,0,0,0,0,0,0,0,0,0,0,0,0,0,0,0,0,0,0,0,0,0,0,0,0,0,0,0,0,0,0,0,0,0,0,0,0,0,0,0,0,0,0,0,0,0,0,0,0,0,0,0,0,0,0,0,0,0,0,0,0,0,0,0,0,0,0,0,0,0,0,0,0,0,0,0,0,0,0,0,0,0,0,0,0,0,0,0,0,0,0,0,0,0,0,0,0,0,0,0,0,0,0,0,0,0,0,0,0,0,0,0,0,0,0,0,0,0,0,0,0,0,0,0,0,0,0,0,0,0,0,0,0,0,0,0,0,0,0,0,0,0,0,0,0,0,0,0,0,0,0,0,0,0,0,0,0,0,0,0,0,0,0,0,0,0,0,0,0,0,0,0,0,0,0,0,0,0,0,0,0,0,0,0,0,0,0,0,0,0,0,0,0,0,0,0,0,0,0,0,0,0,0,0,0,0,0,0,0,0,0,0,0,0,0,0,0,0,0,0,0,0,0,0,0,0,0,0,0,0,0,0,0,0,0,0,0,0,0,0,0,0,0,0,0,0,0,0,0,0,0,0,0,0,0,0,0,0,0,0,0,0,0,0,0,0,0,0,0,0,0,0,0,0,0,0,0,0,0,0,0,0,0,0,0,0,0,0,0,0,0,0,0,0,0,0,0,0,0,0,0,0,0,0,0,0,0,0,0,0,0,0,0,0,0,0,0,0,0,0,0,0,0,0,0,0,0,0,0,0,0,0,0,0,0,0,0,0,0,0,0,0,0,0,0,0,0,0,0,0,0,0,0,0,0,0,0,0,0,0,0,0,0,0,0,0,0,0,0,0,0,0,0,0,0,0,0,0,0,0,0,0,0,0,0,0,0,0,0,0,0,0,0,0,0,0,0-.006-.005,0,0,0,0,0,0,0,0,0,0,0,0,0,0,0,0,0,0,0,0,0,0,0,0,0,0,0,0,0,0,0,0,0,0,0,0,0,0,0,0,0,0,0,0,0,0,0,0,0,0,0,0,0,0,0,0,0,0,0,0,0,0,0,0-.007-.006,0,0,0,0,0,0,0,0,0,0,0,0,0,0,0,0,0,0,0,0,0,0,0,0,0,0,0,0,0,0,0,0,0,0,0,0-.007-.006,0,0,0,0,0,0,0,0,0,0,0,0L11.577,2.2l0,0,0,0,0,0,0,0,0,0,0,0-.008-.006,0,0,0,0,0,0,0,0,0,0,0,0,0,0,0,0,0,0,0,0L11.5,2.145l0,0,0,0,0,0,0,0,0,0,0,0-.008-.006,0,0,0,0-.007-.005,0,0,0,0,0,0,0,0,0,0,0,0-.008-.005-.008-.005L11.4,2.077l0,0,0,0-.007-.005-.008-.006,0,0,0,0-.008-.005-.008-.006-.008-.006-.008-.005-.008-.005-.008-.006-.008-.005,0,0,0,0-.007,0L11.292,2l0,0,0,0-.008-.005-.008-.005-.008-.006-.008-.005-.008-.005-.008-.005-.009-.006-.008-.005-.008-.005-.008,0-.009-.006-.008-.005-.009-.005-.008-.005-.009-.005-.008,0-.008-.005,0,0,0,0-.008,0-.008,0-.009-.006-.008,0-.008-.005-.008,0-.009-.005-.008,0-.009-.005-.008,0-.008,0-.009-.005-.008-.005-.008,0-.009-.005-.008,0-.009-.005-.009-.005L10.975,1.8l-.008,0-.008,0-.009,0-.009-.005-.009,0-.008,0-.009-.005-.008,0L10.9,1.759l-.008,0-.008,0-.009-.005-.008,0-.009-.005-.008,0-.009,0-.009,0-.008,0-.009,0L10.8,1.706l-.008,0-.009,0-.008,0-.009,0-.009,0-.009,0-.009,0-.009,0-.008,0-.009,0-.009,0-.009,0-.009,0-.009,0-.008,0-.009,0-.008,0-.009,0-.009,0-.008,0-.009,0-.009,0-.008,0-.009,0-.009,0-.009,0-.009,0-.009,0-.009,0-.009,0-.01,0-.008,0-.009,0-.01,0-.009,0-.009,0-.009,0-.009,0-.01,0-.008,0-.01,0-.009,0-.009,0-.009,0-.009,0-.009,0-.009,0,0,0,0,0,0,0,0,0,0,0,0,0,0,0-.009,0-.009,0-.009,0-.009,0-.009,0-.009,0-.009,0-.009,0,0,0,0,0,0,0,0,0,0,0,0,0,0,0,0,0,0,0,0,0-.009,0-.009,0-.009,0-.009,0-.009,0-.009,0,0,0,0,0,0,0,0,0,0,0,0,0,0,0,0,0,0,0,0,0,0,0,0,0,0,0,0,0,0,0,0,0-.009,0-.009,0-.009,0,0,0,0,0,0,0,0,0,0,0,0,0,0,0,0,0,0,0,0,0,0,0,0,0,0,0,0,0,0,0,0,0,0,0,0,0,0,0,0,0-.009,0,0,0,0,0,0,0,0,0,0,0,0,0,0,0,0,0,0,0,0,0,0,0,0,0,0,0,0,0,0,0,0,0,0,0,0,0,0,0,0,0,0,0,0,0,0,0,0,0,0,0,0,0,0,0,0,0,0,0,0,0,0,0,0,0,0,0,0,0,0,0,0,0,0,0,0,0,0,0,0,0,0,0,0,0,0,0,0,0,0,0,0,0,0,0,0,0,0,0,0,0,0,0,0,0,0,0,0,0,0,0,0,0,0,0,0,0,0,0,0,0,0,0,0,0,0,0,0,0,0,0,0,0,0,0,0,0,0,0,0,0,0,0,0,0,0,0,0,0,0,0,0,0,0,0,0,0,0,0,0,0,0,0,0,0,0,0,0,0,0,0,0,0,0,0,0,0,0,0,0,0,0,0,0,0,0,0,0,0,0,0,0,0,0,0,0,0,0,0,0,0,0,0,0,0,0,0,0,0,0,0,0,0,0,0,0,0,0,0,0,0h0l0,0H4.253l0,0h0l0,0,0,0,0,0,0,0,0,0,0,0,0,0,0,0,0,0,0,0,0,0,0,0,0,0,0,0,0,0,0,0,0,0,0,0,0,0,0,0,0,0,0,0,0,0,0,0,0,0,0,0,0,0,0,0,0,0,0,0,0,0,0,0,0,0,0,0,0,0,0,0,0,0,0,0,0,0,0,0,0,0,0,0,0,0,0,0,0,0,0,0,0,0,0,0,0,0,0,0,0,0,0,0,0,0,0,0,0,0,0,0,0,0,0,0,0,0,0,0,0,0,0,0,0,0,0,0,0,0,0,0,0,0,0,0,0,0,0,0,0,0,0,0,0,0,0,0,0,0,0,0,0,0,0,0,0,0,0,0,0,0,0,0,0,0,0,0,0,0,0,0,0,0,0,0,0,0,0,0,0,0,0,0,0,0,0,0,0,0,0,0,0,0,0,0,0,0,0,0,0,0,0,0,0,0,0,0,0,0,0,0,0,0,0,0,0,0,0,0,0,0,0,0-.009,0-.009,0,0,0,0,0,0,0,0,0,0,0,0,0,0,0,0,0,0,0,0,0,0,0,0,0,0,0,0,0,0,0,0,0,0,0,0,0-.009,0-.009,0-.009,0-.009,0,0,0,0,0,0,0,0,0,0,0,0,0,0,0,0,0,0,0,0,0,0,0,0,0,0,0,0,0-.009,0-.009,0-.009,0-.009,0-.009,0-.009,0-.009,0,0,0,0,0,0,0,0,0,0,0,0,0,0,0,0,0-.009,0-.009,0-.009,0-.009,0-.009,0-.009,0-.009,0-.009,0-.009,0,0,0,0,0,0,0,0,0L3.3,1.5l-.009,0-.009,0-.009,0-.009,0-.009,0-.009,0-.009,0-.009,0-.009,0-.009,0-.009,0-.009,0-.009,0-.009,0-.009,0-.009,0-.009,0-.009,0-.009,0-.009,0-.009,0L3.1,1.6l-.009,0-.009,0-.009,0-.009,0-.009,0-.009,0-.009,0-.009,0-.009,0-.009,0L3,1.648l-.009,0-.009,0-.009,0-.009,0-.009,0-.009,0-.009,0-.009,0-.009,0-.009,0-.009,0L2.9,1.7l-.009,0-.009,0-.009,0-.009,0-.009,0-.009,0-.009,0-.009,0-.009,0-.009,0-.009,0-.009,0-.009,0-.009,0-.009,0-.009,0-.009,0-.009,0-.009,0-.009,0-.009,0-.009,0-.009,0-.008,0-.008,0-.008.005-.008.005-.008.005-.008.005-.008.005-.008.005-.008.005-.008.005-.008.005L2.6,1.877l-.008.005-.008.005-.008.005L2.566,1.9l0,0-.008,0-.008.005-.008.005-.008.005,0,0-.008.005-.008.005L2.5,1.939l-.008.005-.008.005-.008.005-.008.005-.008.005-.008.005-.008.005-.008.005-.008.005-.008.005,0,0L2.406,2,2.4,2.006l0,0,0,0-.007.005-.008.006-.008.005-.008.006,0,0,0,0-.007.005,0,0,0,0,0,0,0,0-.007,0,0,0,0,0L2.3,2.072l0,0,0,0-.007.005,0,0-.008.006,0,0,0,0,0,0,0,0,0,0-.007.005-.008.006,0,0,0,0-.007.005,0,0,0,0-.007.005,0,0,0,0-.007.005,0,0,0,0,0,0,0,0-.007.005,0,0,0,0,0,0,0,0-.007.005,0,0,0,0,0,0,0,0L2.121,2.2l0,0,0,0,0,0,0,0L2.1,2.221l0,0,0,0,0,0,0,0,0,0,0,0,0,0,0,0,0,0,0,0,0,0,0,0,0,0,0,0-.007.006,0,0,0,0,0,0,0,0,0,0,0,0,0,0,0,0L2,2.3l0,0,0,0,0,0,0,0-.007.006,0,0,0,0,0,0,0,0,0,0,0,0,0,0,0,0,0,0,0,0,0,0,0,0,0,0,0,0,0,0,0,0,0,0,0,0,0,0,0,0,0,0,0,0,0,0,0,0,0,0,0,0,0,0,0,0,0,0,0,0,0,0,0,0,0,0,0,0,0,0,0,0,0,0,0,0,0,0,0,0,0,0,0,0,0,0,0,0,0,0,0,0,0,0,0,0,0,0,0,0,0,0,0,0,0,0,0,0,0,0,0,0,0,0,0,0,0,0,0,0,0,0,0,0,0,0,0,0,0,0,0,0,0,0,0,0,0,0,0,0,0,0,0,0,0,0,0,0,0,0,0,0,0,0,0,0,0,0,0,0,0,0,0,0,0,0,0,0,0,0,0,0,0,0,0,0,0,0,0,0,0,0,0,0,0,0,0,0,0,0,0,0,0,0,0,0,0,0,0,0,0,0,0,0,0,0,0,0,0,0,0,0,0,0,0,0,0,0,0,0,0,0,0,0,0,0,0,0,0,0,0,0,0,0,0,0,0,0,0,0,0,0,0,0,0,0,0,0,0,0,0,0,0,0,0,0,0,0,0,0,0,0,0,0,0,0,0,0,0,0,0,0,0,0,0,0,0,0,0,0,0,0,0,0,0,0,0,0,0,0,0,0,0,0,0,0,0,0,0,0,0,0,0,0,0,0,0,0,0,0,0,0,0,0,0,0,0,0,0,0,0,0,0,0,0,0,0,0,0,0,0,0,0,0,0,0,0,0,0,0,0,0,0,0,0,0,0,0,0,0,0,0,0,0,0,0,0,0,0,0,0,0,0,0,0,0,0,0,0,0,0,0,0,0,0,0,0,0,0,0,0,0,0,0,0,0,0,0,0,0,0,0,0,0,0,0,0,0,0,0,0,0,0,0,0,0,0,0,0,0,0,0,0,0,0,0,0,0,0,0,0,0,0,0,0,0,0,0,0,0,0,0,0,0,0,0,0,0,0,0,0,0,0,0,0,0,0,0,0,0,0,0,0,0,0,0,0,0,0,0,0,0,0,0,0,0,0,0,0,0,0,0,0,0,0,0,0,0,0,0,0,0,0,0,0,0,0,0,0,0,0,0,0,0,0,0,0,0,0,0,0,0,0,0,0,0,0,0,0,0,0,0,0,0,0,0,0,0,0,0,0,0,0,0,0,0,0,0,0,0,0,0,0,0,0,0,0,0,0,0,0,0,0,0,0,0,0,0,0,0,0,0,0,0,0,0,0,0,0,0,0,0,0,0,0,0,0,0,0,0,0,0,0,0,0,0,0,0,0,0,0,0,0,0,0,0,0,0,0,0,0,0,0,0,0,0,0,0,0,0,0,0,0,0,0,0,0,0,0,0,0,0,0,0,0,0,0,0,0,0,0,0,0,0,0,0,0,0,0,0,0,0,0,0,0,0,0,0,0,0,0,0,0,0,0,0,0,0,0,0,0,0,0,0,0,0,0,0,0,0,0,0,0,0,0,0,0,0,0,0,0,0v0l0,0,0,0,0,0,0,0,0,0v0l0,0,0,0,0,0,0,0,0,0,0,0,0,0,0,0,0,0v0l0,0,0,0,0,0,0,0,0,0v0l0,0v0l0,0,0,0,0,0,0,0,0,0v0l0,0v0l0,0v0l0,0,0,0,0,0v0l0,0v0l0,0v0l0,0v0l0,0v0l0,0v0l0,0v0l0,0v0l0,0v0l0,0v0l0,0v0l0,0v0l0,0v0l0,0v0l0,0v0l0,0v0l0,0v0l0,0v0l0,.005v0l0,0v.011l0,.005V3.81l0,.005v.034l0,.005v.56s0,0,0,0,0,0,0,0v0s0,0,0,0v0s0,0,0,0V4.89l0,0v.021l0,0v.008l0,0v0l0,0v.008l0,0v0l0,0v0l0,0v0l0,0v0l0,0v0l0,0v0l0,0v0l0,0V5l0,0V5l0,0v0l0,0v0l0,0v0l0,0v0l0,0v0l0,0v0l0,0v0l0,0,0,0,0,0v0l0,0v0l0,0v0l0,0,0,0,0,0v0l0,0v0l0,0v0l0,0v0l0,0v0l0,0v0l0,0,0,0,0,0v0l0,0,0,0,0,0v0l0,0v0l0,0v0l0,0v0l0,0,0,0,0,0v0l0,0,0,0,0,0,0,0,0,0,0,0,0,0v0l0,0v0l0,0,0,0,0,0,0,0,0,0,0,0,0,0,0,0,0,0v0l0,0,0,0,0,0,0,0,0,0,0,0,0,0v0l0,0,0,0,0,0,0,0,0,0,0,0,0,0,0,.005,0,0,0,0,0,0,0,0,0,0,0,0,0,0,0,0,0,0,0,0,0,0,0,0,0,0,0,0,0,0,0,0,0,0,0,0,0,0,0,0,0,0,0,0,0,0,0,0,0,0,0,0,0,0,0,0,0,0,0,0,0,0,0,0,0,0,0,0,0,0,0,0,0,0,0,0,0,0,0,0,0,0,0,0,0,0,0,0,0,0,0,0,.005,0,0,0,0,0,.005,0,0,0,0,0,0,0,0,0,.005,0,0,0,0,0,.005,0,0,0,0,0,0,0,0,0,0,0,0,0,.006,0,0,0,0,0,0,0,0,0,.006,0,.006.005.006,0,.006.005.006,0,.006,0,.006.005,0,0,0,0,.006,0,.006,0,0,0,0,0,.005,0,0,0,0,0,0,0,0,0,.006,0,0,0,0,0,.006,0,.007,0,0,0,0,0,.006,0,.007,0,.007,0,.006,0,.007,0,.007,0,.007,0,.007,0,.007,0,.007,0,.007,0,.007,0,.007,0,.007,0,.007,0,.007,0,.007,0,.007,0,.007,0,.007,0,.008,0,.007,0,.008.005.007,0,.008,0,.007,0,.007,0,.008,0,.007,0,.008,0,.007,0,.008,0,.007,0,.008,0,.007,0,.008,0,.008,0,.008,0,.008,0,.007,0,.009,0,.007,0,.008,0,.008,0,.008,0,.008,0,.008,0,.008,0,.008,0,.009,0,.007,0,.009,0,.008,0,.008,0,.008,0,.008,0,.008,0,.008,0,.009,0,.007,0,.009,0,.008,0,.009,0,.008,0,.008,0,.009,0,.008,0,.008,0,.009,0,.009,0,.008,0,.009,0,.008,0,.008,0,.009,0,.008,0,.009,0,.008,0,.009,0,.009,0,.008,0,.009,0,.009,0,.008,0,.009,0,.009,0,.009,0,.009,0,.009,0,.009,0,.009,0,.008,0,.009,0,.009,0,.008,0,.01,0,.008,0,.01,0,.009,0,.008,0,.01,0,.009,0,.009,0,.009,0,.01,0,.008,0,.009,0,.01,0,.009,0,.009,0,.009,0,.009,0,.009,0,.009,0,.009,0,.01,0,.008,0,.01,0,.009,0,.009,0,.009,0,.009,0,.009,0,.009,0,.009,0,.009,0,.009,0,.01,0,.009,0,.01,0,.008,0,.01,0,.009,0,.009,0,.009,0,.009,0,.009,0,.009,0,.01,0,.009,0,.01,0,.009,0,.01,0,.009,0,.011,0,.009,0,.01,0,.009,0,.01,0,.009,0,.01,0,.009,0,.01,0h.014l.01,0,.01,0,.01,0,.01,0,.01,0,.01,0,.01,0h.039l.01,0,.01,0,.01,0H6.828Z" transform="translate(0 11.962)" fill="#f5204e"/><path d="M4.389,9.524H3.177l-.006,0-.006,0-.006,0-.006,0-.006,0-.006,0-.006,0-.006,0-.006,0-.006,0-.006,0-.006,0-.006,0-.006,0-.006,0-.006,0-.006,0-.006,0-.006,0-.006,0-.006,0-.006,0-.006,0-.006,0-.006,0-.006,0-.006,0L3,9.339,3,9.337l-.006,0-.006,0-.006,0-.006,0-.006,0-.006,0-.006,0-.006,0-.006,0-.006,0-.006,0-.006,0-.006,0-.006,0-.006,0-.006,0-.006,0-.006,0-.006,0-.006,0-.006,0-.006,0-.006,0-.006,0-.006,0-.006,0-.006,0-.006,0-.006,0-.006,0-.006,0-.006,0-.006,0-.006,0-.006,0-.006,0-.006,0-.006,0-.006,0-.006,0-.006,0-.006,0-.006,0-.006,0-.006,0-.006,0-.006,0-.006,0-.006,0-.006,0-.006,0-.006,0-.006,0-.006,0-.006,0-.006,0-.006,0-.006,0-.006,0-.006,0-.006,0-.006,0-.006,0-.006,0-.006,0-.006,0-.006,0-.006,0-.006,0-.006,0-.006,0-.006,0-.006,0-.006,0-.006,0-.006,0-.006,0-.006,0-.006,0-.006,0-.006,0-.006,0-.006,0-.006,0-.006,0-.006,0-.006,0-.006,0-.006,0-.006,0-.006,0-.006,0-.006,0-.006,0-.006,0-.006,0-.006,0-.006,0-.006,0-.006,0-.006,0-.006,0-.006,0-.006,0-.006,0-.006,0-.006,0-.006,0-.006,0-.006,0-.006,0-.006,0-.006,0-.006,0-.006,0-.006,0-.006,0-.006,0-.006,0-.006,0-.006,0-.006,0-.006,0-.006,0-.006,0-.006,0-.006,0-.006,0-.006,0-.006,0-.006,0-.006,0-.006,0-.006,0-.006,0-.006,0-.006,0-.006,0-.006,0-.006,0-.006,0-.006,0-.006,0-.006,0-.006,0L2.117,9,2.112,9,2.106,9l-.006,0-.006,0-.006,0-.006,0-.006,0-.006,0-.006,0-.006,0-.006,0-.006,0-.006,0-.006,0-.006,0-.006,0-.006,0-.006,0-.006,0L2,8.944,2,8.941l-.006,0-.006,0-.006,0-.006,0-.006,0-.006,0-.006,0-.006,0-.006,0-.006,0-.006,0-.006,0-.006,0-.006,0-.006,0-.006,0-.006,0-.006,0-.006,0-.006,0-.006,0-.006,0-.006,0-.006,0-.006,0-.006,0-.006,0-.006,0-.006,0-.006,0-.006,0-.006,0-.006,0-.006,0-.006,0-.006,0-.006,0-.006,0-.006,0-.006,0-.006,0-.006,0-.006,0-.006,0-.006,0-.006,0-.006,0-.006,0-.006,0-.006,0-.006,0-.005,0-.005,0-.005,0-.005,0-.005,0-.005,0-.005,0-.005,0-.005,0-.005,0-.005,0-.005,0-.005,0-.005,0-.005,0-.005,0-.005,0-.005,0-.005,0-.005,0-.005,0-.005,0-.005,0-.005,0-.005,0-.005,0-.005,0-.005,0-.005,0-.005,0-.005,0-.005,0-.005,0-.005,0-.005,0-.005,0-.005,0-.005,0-.005,0-.005,0-.005,0-.005,0-.005,0-.005,0-.005,0-.005,0-.005,0-.005,0-.005,0-.005,0-.005,0-.005,0-.005,0-.005,0-.005,0-.005,0-.005,0-.005,0-.005,0-.005,0-.005,0-.005,0-.005,0-.005,0-.005,0-.005,0-.005,0-.005,0-.005,0-.005,0-.005,0-.005,0-.005,0-.005,0-.005,0-.005,0L1.3,8.5l-.005,0-.005,0-.005,0-.005,0-.005,0-.005,0-.005,0-.005,0-.005,0-.005,0-.005,0-.005,0-.005,0-.005,0-.005,0-.005,0-.005,0-.005,0-.005,0-.005,0-.005,0-.005,0-.005,0-.005,0-.005,0-.005,0-.005,0-.005,0-.005,0,0,0,0,0,0,0,0,0,0,0,0,0,0,0,0,0,0,0,0,0,0,0,0,0,0,0,0,0,0,0,0,0,0,0,0,0,0,0,0,0,0,0,0,0,0,0,0,0,0,0,0,0,0,0,0,0,0,0,0,0,0,0,0,0,0,0,0,0,0,0,0,0,0,0,0,0,0,0,0,0,0,0,0,0,0,0,0,0,0,0,0,0,0,0,0,0,0,0,0,0,0,0,0,0,0,0,0,0,0,0,0,0,0,0,0,0,0,0,0,0,0,0,0,0,0,0,0,0,0,0,0,0,0,0,0,0,0,0,0,0,0,0,0,0,0,0,0,0,0,0,0,0,0,0,0,0,0,0,0,0,0,0,0,0,0,0,0,0,0,0,0,0,0,0,0,0,0,0,0,0,0,0,0,0,0,0,0,0,0,0,0,0,0,0,0,0,0,0,0,0,0,0,0,0,0,0,0,0,0,0,0,0,0,0h0l0,0,0,0h0l0,0,0,0,0,0,0,0,0,0,0,0,0,0,0,0,0,0,0,0,0,0,0,0,0,0,0,0,0,0,0,0,0,0,0,0,0,0,0,0,0,0,0,0,0,0,0,0,0,0,0,0,0,0,0,0,0,0,0,0,0,0,0,0,0,0,0,0,0,0,0,0,0,0,0,0,0,0,0,0,0,0,0,0,0,0,0,0,0,0,0,0,0,0,0,0,0,0,0,0,0,0,0,0,0,0,0,0,0,0v0l0,0,0,0,0,0,0,0,0-.005,0-.005,0-.005,0-.005,0-.005,0-.005,0-.005,0-.005,0-.005,0-.005,0-.005,0-.005,0,0,0,0,0-.005,0-.005,0-.005,0-.005,0-.005v0l0,0,0-.005,0-.005,0-.005h0l0,0,0-.005,0,0,0,0,0-.005,0-.005,0-.005,0-.005,0-.005,0,0,0,0,0-.005,0-.005,0-.005,0-.005,0-.005,0-.005,0-.005,0-.005,0-.005,0-.005,0-.005,0-.005,0-.005,0-.005,0-.005,0-.005,0-.005v0l0,0,0-.005v0l0,0,0-.005,0-.005,0-.005,0-.005,0-.005,0-.005,0-.005,0-.005,0-.005,0,0,0,0,0-.005,0-.005,0-.005v0l0,0,0-.005,0,0v0l0-.005v0l0,0,0-.005,0-.005,0-.005,0,0v0l0-.005,0-.005,0-.005,0,0,0,0,0-.005,0-.005,0-.005v0l0,0,0-.005,0-.005,0-.005,0-.005,0-.005,0-.005,0-.005,0-.005,0-.005,0-.005,0-.005,0-.005,0-.005,0-.005,0-.005,0,0v0l0-.005,0-.005,0-.005v0l0,0,0-.005,0-.005,0-.005,0-.005,0-.005,0,0v0l0-.005,0-.005,0-.006v0l0,0,0-.006,0-.006,0-.006,0-.006,0-.006,0,0v0l0-.006,0,0V7l0-.006,0-.006,0-.006v0l0,0,0-.006v0l0,0,0-.006,0,0v0l0-.006v0l0,0,0-.006,0-.006,0-.006,0,0v0l0-.006v0l0,0,0-.006v0l0,0,0-.006,0-.006,0-.006,0-.006,0-.006,0,0v0l0-.006,0,0v0l0-.006v0l0,0,0-.006v0l0,0,0-.006v0l0,0,0-.006,0-.006,0-.006,0,0v0l0-.006v0l0,0,0-.006,0-.006,0-.006v0l0,0,0-.006,0,0v0l0-.006v0l0,0,0-.006v0l0,0,0-.006v0l0,0,0-.006,0-.006,0-.006v0l0,0,0-.006v0l0,0,0-.006v0l0,0,0-.006,0,0v0l0-.006,0-.006,0-.006v0l0,0,0-.006V6.63l0-.006v0l0,0,0-.006v0l0,0,0-.006V6.595l0-.006V6.583l0-.006v0l0,0,0-.006,0,0v0l0-.006V6.548l0-.006V6.536l0-.006v0l0,0,0-.006V6.513l0-.006,0,0v0l0-.006,0,0v0l0-.006,0,0v0l0-.006V6.466l0-.006,0-.006,0-.006V6.442l0-.006V6.43l0-.006,0,0v0l0-.006V6.407l0-.006v0l0,0,0-.006V6.383l0-.006v0l0,0,0-.006V6.359l0-.006,0,0v0l0-.006V6.335l0-.006V6.323l0-.006,0,0v0l0-.006V6.3l0-.006V6.287l0-.006V6.275l0-.006V6.263l0-.006v0l0,0,0-.006V6.239l0-.006V6.227l0-.006V6.215l0-.006V6.2l0-.006V6.191l0-.006V6.179l0-.006V6.167l0-.006V6.155l0-.006V6.143l0-.006v0l0,0,0-.006V6.118l0-.006V6.106l0-.006V6.094l0-.006V6.082l0-.006V6.07l0-.006V6.057l0-.006V6.045l0-.006V6.033l0-.006V6.021l0-.006V6.008l0-.006V6l0-.006V5.984l0-.006V5.972l0-.006V5.959l0-.006V5.947l0-.006V5.935l0-.006V5.922l0-.006V5.91l0-.006V5.9l0-.006V5.885l0-.006V5.873l0-.006V5.861l0-.006V5.848l0-.006V5.836l0-.006V5.824l0-.006V5.811l0-.006V5.8l0-.006V5.786l0-.006V5.774l0-.006V5.761l0-.006V5.749l0-.006V5.737l0-.006V5.724l0-.006V5.712l0-.006V5.7l0-.006V5.687l0-.006V5.674l0-.006V5.662l0-.006V5.649l0-.006V5.637l0-.006V5.624l0-.006V5.612l0-.006V4.419s0,0,0,0v-.01s0,0,0,0,0,0,0,0v-.01s0,0,0,0v0s0,0,0-.005V3.19l0-.006V3.177l0-.006V3.165l0-.006V3.152l0-.006V3.14l0-.006V3.127l0-.006V3.115l0-.006V3.1l0-.006V3.09l0-.006V3.077l0-.006V3.065l0-.006V3.052l0-.006V3.04l0-.006V3.027l0-.006V3.015l0-.006V3l0-.006V2.99l0-.006V2.978l0-.006V2.965l0-.006V2.953l0-.006V2.94l0-.006V2.928l0-.006V2.916l0-.006V2.9l0-.006V2.891l0-.006V2.879l0-.006V2.866l0-.006V2.854l0-.006V2.842l0-.006V2.829l0-.006V2.817l0-.006V2.8l0-.006V2.793l0-.006V2.78l0-.006V2.768l0-.006V2.756l0-.006V2.744l0-.006V2.731l0-.006V2.719l0-.006V2.707l0-.006V2.695l0-.006V2.683l0-.006V2.671l0-.006V2.658l0-.006V2.646l0-.006V2.634l0-.006,0,0v0l0-.006V2.61l0-.006V2.6l0-.006V2.586l0-.006V2.574l0-.006V2.562l0-.006V2.55l0-.006V2.538l0-.006V2.526l0-.006V2.514l0-.006V2.5l0-.006V2.49l0-.006V2.478l0-.006V2.466l0-.006V2.454l0-.006V2.442l0-.006v0l0,0,0-.006V2.418l0-.006V2.406l0-.006V2.394l0-.006v0l0,0,0-.006V2.37l0-.006V2.359l0-.006V2.347l0-.006V2.335l0-.006V2.323l0-.006,0,0v0l0-.006V2.3l0-.006V2.288l0-.006V2.276l0-.006V2.264l0-.006,0,0v0l0-.006V2.241l0-.006v0l0,0,0-.006,0,0v0l0-.006V2.206l0-.006V2.194l0-.006,0,0v0l0-.006,0,0v0l0-.006,0,0v0l0-.006V2.148l0-.006v0l0,0,0-.006,0,0v0l0-.006,0,0v0l0-.006,0,0v0l0-.006,0,0v0l0-.006v0l0,0,0-.006,0-.006,0-.006v0l0,0,0-.006,0,0v0l0-.006,0-.006,0-.006,0,0v0l0-.006v0l0,0,0-.006,0-.006,0-.006v0l0,0,0-.006,0,0v0l0-.006v0l0,0,0-.006v0l0,0,0-.006,0-.006,0-.006,0,0v0l0-.006,0,0v0l0-.006,0,0v0l0-.006v0l0,0,0-.006,0-.006,0-.006v0l0,0,0-.006v0l0,0,0-.006,0-.006,0-.006v0l0,0,0-.006,0,0v0l0-.006v0l0,0,0-.006v0l0,0,0-.006,0-.006,0-.006,0-.006,0-.006,0-.006,0-.006,0-.006,0-.006,0-.006,0-.006,0-.006,0-.006,0,0v0l0-.006v0l0,0,0-.005,0-.005,0-.005,0,0v0l0-.005,0-.005,0-.005,0,0v0l0-.005v0l0,0,0-.005,0-.005,0-.005,0,0v0l0-.005v0l0,0,0-.005v0l0,0,0-.005,0-.005,0-.005,0-.005,0-.005,0,0v0l0-.005,0,0,0,0,0-.005v0l0,0,0-.005v0l0,0,0-.005v0l0,0,0-.005,0-.005,0-.005,0-.005,0-.005,0,0v0l0-.005,0-.005,0-.005h0l0,0,0-.005,0,0,0,0,0-.005,0-.005,0-.005,0-.005,0-.005,0-.005,0-.005,0-.005,0-.005,0-.005,0-.005,0-.005,0-.005,0,0,0,0,0-.005v0l0,0,0-.005,0-.005,0-.005,0-.005,0-.005,0-.005,0-.005,0-.005,0-.005,0,0v0l0-.005,0-.005,0-.005h0l0,0,0-.005,0-.005,0-.005v0l0,0,0-.005,0-.005,0-.005,0-.005,0-.005,0-.005,0-.005,0-.005,0-.005,0,0,0,0,0-.005,0-.005,0-.005,0,0v0l0-.005,0,0v0l0-.005,0,0,0,0,0-.005,0-.005,0-.005,0-.005,0-.005,0-.005,0-.005,0-.005,0-.005,0-.005,0-.005,0,0,0,0,0,0,0,0,0,0,0,0,0,0,0,0,0,0,0,0,0,0v0l0,0,0,0,0,0,0,0,0,0,0,0,0,0,0,0,0,0,0,0,0,0,0,0,0,0,0,0,0,0v0l0,0,0,0,0,0,0,0,0,0,0,0,0,0,0,0,0,0,0,0,0,0,0,0,0,0,0,0,0,0,0,0,0,0,0,0,0,0,0,0,0,0,0,0,0,0,0,0,0,0,0,0,0,0,0,0,0,0,0,0,0,0,0,0,0,0,0,0,0,0,0,0,0,0,0,0,0,0v0l0,0,0,0,0,0,0,0,0,0,0,0,0,0,0,0,0,0,0,0,0,0,0,0,0,0,0,0,0,0,0,0,0,0,0,0,0,0,0,0,0,0,0,0,0,0,0,0,0,0h0l0,0,0,0,0,0,0,0,0,0,0,0,0,0,0,0,0,0,0,0,0,0,0,0,0,0,0,0,0,0,0,0,0,0,0,0,0,0,0,0,0,0,0,0,0,0,0,0,0,0,0,0,0,0,0,0,0,0,0,0,0,0,0,0,0,0,0,0,0,0,0,0,0,0,0,0,0,0,0,0,0,0,0,0,0,0,0,0,0,0,0,0,0,0,0,0,0,0,0,0,0,0,0,0,0,0,0,0,0,0,0,0,0,0,0,0,0,0,0,0,0,0,0,0,0,0,0,0,0,0,0,0,0,0,0,0,0,0,0,0,0,0,0,0,0,0,0,0,0,0,0,0,0,0,0,0,0,0,0,0,.005,0,.005,0,.005,0,.005,0,.005,0,.005,0,.005,0L1.2.36l.005,0,.005,0,.005,0,.005,0,.005,0,.005,0,.005,0,.005,0,.005,0,.005,0,.005,0,.005,0,.005,0,.005,0,.005,0,.005,0,.005,0,.005,0,.005,0,.005,0,.005,0,.005,0,.005,0,.005,0,.005,0,.005,0,.005,0,.005,0,.005,0,.005,0,.005,0,.005,0,.005,0,.005,0,.005,0,.005,0,.005,0,.005,0,.005,0,.005,0,.005,0,.005,0,.005,0,.005,0,.005,0,.005,0,.005,0,.005,0,.005,0,.005,0,.005,0,.005,0,.005,0,.005,0,.005,0,.005,0,.005,0,.005,0,.005,0,.005,0,.005,0,.005,0,.005,0,.005,0,.005,0,.005,0,.005,0,.005,0,.005,0,.005,0,.005,0,.005,0,.005,0,.005,0,.005,0,.005,0,.005,0,.005,0,.005,0,.005,0,.005,0,.005,0,.005,0,.005,0,.005,0,.005,0,.005,0,.005,0,.005,0,.005,0,.005,0,.005,0,.005,0,.005,0L1.7.01l.005,0,.005,0,.005,0L1.72,0l.005,0,.006,0,.006,0,.006,0,.006,0,.006,0,.006,0,.006,0,.006,0,.006,0,.006,0,.006,0,.006,0,.006,0,.006,0,.006,0,.006,0,.006,0,.006,0,.006,0,.006,0,.006,0,.006,0,.006,0,.006,0,.006,0,.006,0,.006,0,.006,0,.006,0,.006,0,.006,0,.006,0,.006,0,.006,0,.006,0,.006,0,.006,0,.006,0,.006,0,.006,0,.006,0,.006,0,.006,0,.006,0,.006,0,.006,0,.006,0,.006,0L2-.163l.006,0,.006,0,.006,0,.006,0,.006,0,.006,0,.006,0,.006,0,.006,0,.006,0,.006,0,.006,0,.006,0,.006,0,.006,0,.006,0,.006,0,.006,0,.006,0,.006,0,.006,0,.006,0,.006,0,.006,0,.006,0,.006,0,.006,0,.006,0,.006,0,.006,0,.006,0,.006,0,.006,0,.006,0,.006,0,.006,0,.006,0,.006,0,.006,0,.006,0,.006,0,.006,0,.006,0,.006,0,.006,0,.006,0,.006,0,.006,0,.006,0,.006,0,.006,0,.006,0,.006,0,.006,0,.006,0,.006,0,.006,0,.006,0,.006,0,.006,0,.006,0,.006,0,.006,0,.006,0,.006,0,.006,0,.006,0,.006,0,.006,0,.006,0,.006,0,.006,0,.006,0,.006,0,.006,0,.006,0,.006,0,.006,0,.006,0,.006,0,.006,0,.006,0,.006,0,.006,0,.006,0,.006,0,.006,0,.006,0,.006,0,.006,0,.006,0,.006,0,.006,0,.006,0,.006,0,.006,0,.006,0,.006,0,.006,0,.006,0,.006,0,.006,0,.006,0,.006,0,.006,0,.006,0,.006,0,.006,0,.006,0,.006,0,.006,0,.006,0,.006,0,.006,0,.006,0,.006,0,.006,0,.006,0,.006,0,.006,0,.006,0,.006,0,.006,0,.006,0,.006,0,.006,0,.006,0,.006,0,.006,0,.006,0,.006,0,.006,0,.006,0,.006,0L2.8-.5l.006,0,.006,0,.006,0,.006,0,.006,0,.006,0,.006,0,.006,0,.006,0,.006,0,.006,0,.006,0,.006,0,.006,0,.006,0,.006,0,.006,0,.006,0,.006,0,.006,0,.006,0,.006,0,.006,0,.006,0,.006,0,.006,0,.006,0,.006,0,.006,0,.006,0,.006,0L3-.56,3-.562l.006,0,.006,0,.006,0,.006,0,.006,0,.006,0,.006,0,.006,0,.006,0,.006,0,.006,0,.006,0,.006,0,.006,0,.006,0,.006,0,.006,0,.006,0,.006,0,.006,0,.006,0,.006,0,.006,0,.006,0,.006,0,.006,0,.006,0,.006,0,.006,0,.006,0H5.584l.006,0,.006,0,.006,0,.006,0,.006,0,.006,0,.006,0,.006,0,.006,0,.006,0,.006,0,.006,0,.006,0,.006,0,.006,0,.006,0,.006,0,.006,0,.006,0,.006,0,.006,0,.006,0,.006,0,.006,0,.006,0,.006,0,.006,0,.006,0,.006,0,.006,0,.006,0,.006,0,.006,0,.006,0,.006,0,.006,0,.006,0,.006,0,.006,0,.006,0,.006,0,.006,0,.006,0,.006,0,.006,0,.006,0,.006,0,.006,0,.006,0,.006,0,.006,0,.006,0,.006,0,.006,0,.006,0,.006,0,.006,0,.006,0,.006,0,.006,0,.006,0,.006,0,.006,0,.006,0,.006,0,.006,0L6-.492l.006,0,.006,0,.006,0,.006,0,.006,0,.006,0,.006,0,.006,0,.006,0,.006,0,.006,0,.006,0,.006,0,.006,0,.006,0,.006,0,.006,0,.006,0,.006,0,.006,0,.006,0,.006,0,.006,0,.006,0,.006,0,.006,0,.006,0,.006,0,.006,0,.006,0,.006,0,.006,0,.006,0,.006,0,.006,0,.006,0,.006,0,.006,0,.006,0,.006,0,.006,0,.006,0,.006,0,.006,0,.006,0,.006,0,.006,0,.006,0,.006,0,.006,0,.006,0,.006,0,.006,0,.006,0,.006,0,.006,0,.006,0,.006,0,.006,0,.006,0,.006,0,.006,0,.006,0,.006,0,.006,0,.006,0,.006,0,.006,0,.006,0,.006,0,.006,0,.006,0,.006,0,.006,0,.006,0,.006,0,.006,0,.006,0,.006,0,.006,0,.006,0,.006,0L6.5-.3l.006,0,.006,0,.006,0,.006,0,.006,0,.006,0,.006,0,.006,0,.006,0,.006,0,.006,0,.006,0,.006,0,.006,0,.006,0,.006,0,.006,0,.006,0,.006,0,.006,0,.006,0,.006,0,.006,0,.006,0,.006,0,.006,0,.006,0,.006,0,.006,0,.006,0,.006,0,.006,0,.006,0L6.7-.2,6.7-.2l.006,0,.006,0,.006,0,.006,0,.006,0,.006,0,.006,0,.006,0,.006,0,.006,0,.006,0,.006,0,.006,0,.006,0,.006,0,.006,0,.006,0,.006,0,.006,0,.006,0,.006,0,.006,0,.006,0,.006,0,.006,0,.006,0,.006,0,.006,0,.006,0,.006,0,.006,0,.006,0,.006,0,.006,0,.006,0,.006,0,.006,0,.006,0,.006,0,.006,0,.006,0,.006,0,.006,0,.006,0,.006,0,.006,0,.006,0,.006,0,.006,0,.006,0,.006,0L7-.039,7-.036l.006,0,.006,0,.006,0,.006,0,.006,0,.006,0,.006,0,.006,0,.006,0,.006,0,.005,0,.005,0,.005,0,.005,0,.005,0,.005,0,.005,0,.005,0,.005,0,.005,0,.005,0,.005,0,.005,0,.005,0,.005,0,.005,0,.005,0,.005,0,.005,0,.005,0,.005,0,.005,0,.005,0,.005,0,.005,0,.005,0L7.2.09l.005,0,.005,0,.005,0,.005,0,.005,0,.005,0,.005,0,.005,0,.005,0,.005,0,.005,0,.005,0,.005,0,.005,0,.005,0,.005,0,.005,0,.005,0,.005,0,.005,0,.005,0,.005,0,.005,0,.005,0,.005,0,.005,0,.005,0,.005,0,.005,0,.005,0,.005,0,.005,0,.005,0,.005,0,.005,0,.005,0,.005,0,.005,0,.005,0,.005,0,.005,0,.005,0,.005,0,.005,0,.005,0,.005,0,.005,0,.005,0,.005,0,.005,0,.005,0,.005,0,.005,0,.005,0,.005,0L7.5.3,7.5.3l.005,0,.005,0,.005,0,.005,0,.005,0,.005,0,.005,0,.005,0,.005,0,.005,0,.005,0,.005,0,.005,0,.005,0,.005,0,.005,0,.005,0,.005,0,.005,0,.005,0,.005,0,.005,0,0,0,.005,0,0,0,0,0,0,0,0,0,0,0,0,0,0,0,0,0,0,0,0,0,0,0,0,0,0,0,0,0,0,0,0,0,0,0,0,0,0,0h0l0,0,0,0,0,0,0,0,0,0,0,0,0,0,0,0,0,0,0,0h0l0,0,0,0,0,0,0,0,0,0,0,0,0,0,0,0,0,0,0,0,0,0,0,0,0,0,0,0,0,0,0,0,0,0,0,0,0,0,0,0,0,0,0,0,0,0,0,0,0,0,0,0,0,0,0,0,0,0,0,0,0,0,0,0,0,0,0,0,0,0,0,0,0,0,0,0,0,0,0,0,0,0,0,0,0,0,0,0,0,0,0,0,0,0,0,0,0,0,0,0,0,0,0,0,0,0,0,0,0,0,0,0,0,0,0,0,0,0,0,0,0,0,0,0,0,0,0,0,0,0,0,0,0,0,0,0,0,0,0,0,0,0,0,0,0,0,0,0,0,0,0,0,0,0,0,0,0,0v0l0,0,0,0,0,0,0,0,0,0,0,0,0,0,0,0,0,0,0,0,0,0,0,0,0,0,0,0,0,0,0,0,0,0,0,0,0,0,0,0,0,0,0,0,0,0,0,0,0,0,0,0,0,0,0,0,0,0,0,0,0,0,0,0,0,0,0,0,0,0,0,0,0,0,0,0,0,0v0l0,0,0,0,0,0,0,0,0,0,0,0,0,0,0,0,0,0,0,0,0,0,0,0,0,0,0,0,0,0,0,0,0,0,0,0,0,0,0,0,0,0,0,0,0,0,0,.005,0,0,0,.005,0,.005,0,0,0,0,0,.005,0,.005,0,.005,0,.005,0,.005,0,.005,0,.005,0,.005,0,.005,0,.005,0,.005,0,.005,0,.005,0,.005,0,.005,0,.005,0,.005,0,.005,0,.005,0,.005,0,.005,0,.005,0,.005,0,0,0,0,0,.005,0,.005,0,.005,0,.005,0,.005,0,.005,0,.005,0,.005,0,.005,0,.005,0,.005,0,.005,0,.005,0,.005,0,.005,0,.005,0,.005,0,.005,0,.005v0l0,0,0,.005,0,.005,0,.005,0,.005,0,.005v0l0,0,0,.005,0,.005,0,.005,0,.005,0,.005,0,.005,0,.005,0,.005,0,.005,0,0v0l0,.005,0,0v0l0,.005,0,0,0,0,0,.005h0l0,0,0,.005,0,.005,0,.005,0,.005,0,.005,0,0,0,0,0,.005v0l0,0,0,.005,0,0v0l0,.005,0,0v0l0,.005,0,.005,0,.005,0,0v0l0,.005,0,.005,0,.005,0,0v0l0,.005v0l0,0,0,.005,0,0,0,0,0,.005,0,0v0l0,.005,0,.005,0,.005,0,0v0l0,.005,0,0v0l0,.005,0,0,0,0,0,.005,0,0v0l0,.005v0l0,0,0,.006,0,.006,0,.006,0,0v0l0,.006v0l0,0,0,.006,0,.006,0,.006,0,0v0l0,.006v0l0,0,0,.006v0l0,0,0,.006v0l0,0,0,.006,0,.006,0,.006v0l0,0,0,.006,0,.006,0,.006v0l0,0,0,.006v0l0,0,0,.006,0,.006,0,.006v0l0,0,0,.006v0l0,0,0,.006,0,0v0l0,.006v0l0,0,0,.006,0,.006,0,.006,0,0v0l0,.006v0l0,0,0,.006,0,0v0l0,.006v0l0,0,0,.006v0l0,0,0,.006,0,.006,0,.006,0,0v0l0,.006v0l0,0,0,.006,0,.006,0,.006,0,0v0l0,.006,0,0v0l0,.006v0l0,0,0,.006,0,0v0l0,.006,0,.006,0,.006v0l0,0,0,.006,0,0v0l0,.006v0l0,0,0,.006v0l0,0,0,.006,0,0v0l0,.006v.006l0,.006v.006l0,.006v0l0,0,0,.006V2.2l0,.006v0l0,0,0,.006v0l0,0,0,.006v.006l0,.006,0,0v0l0,.006V2.26l0,.006v.006l0,.006,0,.006,0,.006V2.3l0,.006v.006l0,.006,0,0v0l0,.006v.006l0,.006,0,.006,0,.006v.006l0,.006v.006l0,.006v.006l0,.006V2.39l0,.006V2.4l0,.006v0l0,0,0,.006v.006l0,.006v.006l0,.006V2.45l0,.006v.006l0,.006v.006l0,.006v.006l0,.006V2.5l0,.006V2.51l0,.006v.006l0,.006v.006l0,.006v.006l0,.006v.006l0,.006V2.57l0,.006v.006l0,.006v.006l0,.006v.006l0,.006v.006l0,.006V2.63l0,.006v.006l0,.006v.006l0,.006v.006l0,.006v.006l0,.006v.006l0,.006V2.7l0,.006v.006l0,.006v.006l0,.006V2.74l0,.006v.006l0,.006v.006l0,.006v.006l0,.006v.006l0,.006V2.8l0,.006v.006l0,.006v.006l0,.006v.006l0,.006V2.85l0,.006v.006l0,.006v.006l0,.006v.006l0,.006V2.9l0,.006v.006l0,.006v.006l0,.006v.006l0,.006v.006l0,.006v.006l0,.006v.006l0,.006v.006l0,.006V3l0,.006v.006l0,.006v.006l0,.006v.006l0,.006v.006l0,.006v.006l0,.006v.006l0,.006v.006l0,.006V3.1l0,.006v.006l0,.006v.006l0,.006v.006l0,.006v.006l0,.006v.006l0,.006v.006l0,.006v1.2s0,0,0,0,0,0,0,0v0h0s0,.007,0,.01v.009s0,0,0,0V5.584l0,.006V5.6l0,.006v.006l0,.006v.006l0,.006v.006l0,.006v.006l0,.006v.006l0,.006v.006l0,.006v.006l0,.006V5.7l0,.006v.006l0,.006v.006l0,.006v.006l0,.006v.006l0,.006v.006l0,.006v.006l0,.006v.006l0,.006V5.8l0,.006v.006l0,.006v.006l0,.006v.006l0,.006v.006l0,.006v.006l0,.006V5.87l0,.006v.006l0,.006v.006l0,.006v.006l0,.006V5.92l0,.006v.006l0,.006v.006l0,.006v.006l0,.006v.006l0,.006v.006l0,.006v.006l0,.006v.006l0,.006v.006l0,.006V6.03l0,.006v.006l0,.006v.006l0,.006v.006l0,.006v.006l0,.006v.006l0,.006V6.1l0,.006v.006l0,.006v.006l0,.006V6.14l0,.006v.006l0,.006v.006l0,.006v.006l0,.006v.006l0,.006V6.2l0,.006v.006l0,.006v.006l0,.006v.006l0,.006v.006l0,.006V6.26l0,.006v.006l0,.006v.006l0,.006V6.3l0,.006v.006l0,.006V6.32l0,.006v.006l0,.006v0l0,0,0,.006v.006l0,.006,0,0v0l0,.006v0l0,0,0,.006,0,.006,0,.006V6.4l0,.006v.006l0,.006v.006l0,.006v.006l0,.006,0,.006,0,.006,0,0v0l0,.006v.006l0,.006v0l0,0,0,.006V6.5l0,.006V6.51l0,.006v0l0,0,0,.006v.006l0,.006v.006l0,.006v0l0,0,0,.006v0l0,0,0,.006,0,.006,0,.006v0l0,0,0,.006V6.6l0,.006,0,.006,0,.006,0,0v0l0,.006,0,.006,0,.006v0l0,0,0,.006v0l0,0,0,.006v0l0,0,0,.006v0l0,0,0,.006,0,0v0l0,.006,0,.006,0,.006v0l0,0,0,.006,0,0v0l0,.006v0l0,0,0,.006v0l0,0,0,.006,0,.006,0,.006,0,0v0l0,.006,0,.006,0,.006v0l0,0,0,.006,0,0v0l0,.006,0,.006,0,.006,0,.006,0,.006,0,.006,0,.006,0,0v0l0,.006,0,0v0l0,.006v0l0,0,0,.006,0,.006,0,.006,0,0v0l0,.006v0l0,0,0,.006,0,0v0l0,.006,0,0v0l0,.006,0,0v0l0,.006v0l0,0,0,.006v0l0,0,0,.006,0,.006,0,.006,0,0v0l0,.006L8.81,7l0,.006v0l0,0,0,.006,0,0v0l0,.006,0,.006,0,.006,0,.006,0,.006v0l0,0,0,.006,0,0,0,0,0,.005,0,.005,0,.005,0,.005,0,.005,0,.005,0,.005,0,.005,0,.005,0,0,0,0,0,.005,0,0,0,0,0,.005v0l0,0,0,.005,0,0v0l0,.005v0l0,0,0,.005,0,.005,0,.005,0,.005,0,.005,0,0v0l0,.005,0,0,0,0,0,.005,0,.005,0,.005,0,.005,0,.005,0,0v0l0,.005,0,.005,0,.005,0,.005,0,.005,0,.005,0,.005,0,0v0l0,.005,0,0,0,0,0,.005,0,.005,0,.005,0,.005,0,.005,0,.005,0,.005,0,0,0,0,0,.005,0,.005,0,.005,0,.005,0,.005,0,.005,0,.005,0,.005,0,.005,0,.005,0,.005v0l0,0,0,.005v0l0,0,0,.005,0,.005,0,.005,0,.005,0,.005,0,.005,0,.005,0,.005,0,.005,0,.005,0,.005,0,.005,0,.005,0,.005,0,.005,0,.005,0,.005,0,.005,0,.005,0,.005,0,.005,0,.005,0,.005,0,.005,0,.005,0,.005,0,.005,0,0,0,0,0,.005,0,0,0,0,0,.005,0,.005,0,.005,0,.005,0,.005,0,.005,0,.005,0,.005,0,.005,0,.005,0,.005,0,.005,0,.005,0,0,0,0,0,0,0,0,0,0,0,0,0,0,0,0,0,0,0,0,0,0,0,0,0,0,0,0,0,0,0,0,0,0,0,0,0,0,0,0,0,0,0,0,0,0,0,0,0,0,0,0,0,0h0l0,0,0,0h0l0,0,0,0,0,0,0,0,0,0,0,0,0,0,0,0,0,0,0,0,0,0,0,0,0,0,0,0,0,0,0,0,0,0,0,0,0,0,0,0,0,0,0,0,0,0,0,0,0,0,0,0,0,0,0,0,0,0,0,0,0,0,0,0,0,0,0,0,0,0,0,0,0,0,0,0,0,0,0,0,0,0,0,0,0,0,0,0,0,0,0,0,0,0,0,0,0,0,0,0,0,0,0,0,0,0,0,0,0,0,0,0,0,0,0,0,0,0,0,0,0,0,0,0,0,0,0,0,0,0,0,0,0,0,0,0,0,0,0,0,0,0,0,0,0,0,0,0,0,0,0,0,0,0,0,0,0,0,0,0,0,0,0,0,0,0,0,0,0,0,0,0,0,0,0,0,0,0,0,0,0,0,0,0,0,0,0,0,0,0,0,0h0l0,0,0,0,0,0,0,0,0,0,0,0,0,0,0,0,0,0,0,0,0,0,0,0,0,0,0,0,0,0,0,0,0,0,0,0,0,0,0,0,0,0,0,0,0,0,0,0,0,0,0,0,0,0,0,0,0,0,0,0,0,0,0,0,0,0,0,0,0,0,0,0,0,0,0,0,0,0,0,0-.005,0,0,0-.005,0-.005,0-.005,0L7.6,8.4l-.005,0-.005,0-.005,0-.005,0-.005,0-.005,0-.005,0-.005,0-.005,0-.005,0-.005,0-.005,0-.005,0-.005,0-.005,0-.005,0-.005,0-.005,0-.005,0-.005,0-.005,0-.005,0-.005,0-.005,0-.005,0-.005,0-.005,0-.005,0-.005,0-.005,0-.005,0-.005,0-.005,0-.005,0-.005,0-.005,0-.005,0-.005,0-.005,0-.005,0-.005,0-.005,0-.005,0-.005,0-.005,0-.005,0-.005,0-.005,0-.005,0-.005,0-.005,0-.005,0-.005,0-.005,0-.005,0-.005,0-.005,0-.005,0-.005,0-.005,0-.005,0-.005,0-.005,0-.005,0-.005,0-.005,0-.005,0-.005,0-.005,0-.005,0-.005,0-.005,0-.005,0-.005,0-.005,0-.005,0-.005,0-.005,0-.005,0-.005,0-.005,0-.005,0-.005,0-.005,0-.005,0-.005,0-.005,0-.005,0-.005,0-.005,0-.005,0-.005,0-.005,0-.005,0-.005,0-.005,0-.005,0-.005,0-.005,0-.005,0-.005,0-.005,0-.005,0-.006,0-.006,0-.006,0-.006,0-.006,0-.006,0-.006,0-.006,0L7,8.808,7,8.811l-.006,0-.006,0-.006,0-.006,0-.006,0-.006,0-.006,0-.006,0-.006,0-.006,0-.006,0-.006,0-.006,0-.006,0-.006,0-.006,0-.006,0-.006,0-.006,0-.006,0-.006,0-.006,0-.006,0-.006,0-.006,0-.006,0-.006,0-.006,0-.006,0-.006,0-.006,0-.006,0-.006,0-.006,0-.006,0-.006,0-.006,0-.006,0-.006,0-.006,0-.006,0-.006,0-.006,0-.006,0-.006,0-.006,0-.006,0-.006,0-.006,0-.006,0-.006,0-.006,0-.006,0-.006,0-.006,0-.006,0-.006,0-.006,0-.006,0L6.659,9,6.653,9,6.648,9,6.642,9l-.006,0-.006,0-.006,0-.006,0-.006,0-.006,0-.006,0-.006,0-.006,0-.006,0-.006,0-.006,0-.006,0-.006,0-.006,0-.006,0-.006,0-.006,0-.006,0-.006,0-.006,0-.006,0-.006,0-.006,0-.006,0-.006,0-.006,0-.006,0-.006,0-.006,0-.006,0-.006,0-.006,0-.006,0-.006,0-.006,0-.006,0-.006,0-.006,0-.006,0-.006,0-.006,0-.006,0-.006,0-.006,0-.006,0-.006,0-.006,0-.006,0-.006,0-.006,0-.006,0-.006,0-.006,0-.006,0-.006,0-.006,0-.006,0-.006,0-.006,0-.006,0-.006,0-.006,0-.006,0-.006,0-.006,0-.006,0-.006,0-.006,0-.006,0-.006,0-.006,0-.006,0-.006,0L6.2,9.2l-.006,0-.006,0-.006,0-.006,0-.006,0-.006,0-.006,0-.006,0-.006,0-.006,0-.006,0-.006,0-.006,0-.006,0-.006,0-.006,0-.006,0-.006,0-.006,0-.006,0-.006,0-.006,0-.006,0-.006,0-.006,0-.006,0-.006,0-.006,0-.006,0-.006,0-.006,0L6,9.264,6,9.266l-.006,0-.006,0-.006,0-.006,0-.006,0-.006,0-.006,0-.006,0-.006,0-.006,0-.006,0-.006,0-.006,0-.006,0-.006,0L5.9,9.3l-.006,0-.006,0-.006,0-.006,0-.006,0-.006,0-.006,0-.006,0-.006,0-.006,0-.006,0-.006,0-.006,0-.006,0-.006,0-.006,0-.006,0-.006,0-.006,0-.006,0-.006,0-.006,0-.006,0-.006,0-.006,0-.006,0-.006,0-.006,0-.006,0-.006,0-.006,0-.006,0-.006,0-.006,0-.006,0-.006,0-.006,0-.006,0-.006,0-.006,0-.006,0-.006,0-.006,0-.006,0-.006,0-.006,0-.006,0-.006,0-.006,0-.006,0-.006,0H4.389Zm0-1.5h.6l.009,0,.009,0,.009,0,.009,0,.009,0,.009,0,.009,0,.009,0,.009,0,.009,0,.009,0,.009,0,.009,0,.009,0,.009,0,.009,0,.009,0,.009,0,.009,0,.009,0,.009,0,.009,0,.009,0,.009,0,.009,0,.009,0,.009,0,.009,0,.009,0,.009,0,.009,0,.009,0,.009,0,.009,0,.009,0,.009,0,.009,0,.009,0,.009,0,.009,0,.009,0,.009,0,.009,0,.009,0,.009,0,.009,0,.009,0,.009,0,.009,0,.009,0,.009,0,.009,0,.009,0,.009,0,.009,0,.009,0,.009,0,.009,0,.009,0,.009,0,.009,0,.009,0,.009,0,.009,0,.009,0,.009,0,.009,0,.009,0,.009,0,.009,0,.009,0,.009,0,.009,0,.009,0,.009,0,.009,0,.009,0,.009,0,.009,0,.009,0,.009,0,.008,0,.008,0,.008,0,.008,0,.008,0,.008,0,.008,0,.008,0,.008,0,.008,0,.008,0,.008,0,.008,0,.008,0,.008,0,.008,0,.008,0,.008,0,.008,0,.008,0,.008,0,.008,0,.008,0,.008,0,.008,0,.008,0,.008,0,.008,0,.008,0,.008,0,.008,0,.008,0,.008,0,.008,0,.008,0,.008,0,.008,0,.008,0,.008,0,.008,0,.008,0,.008,0,.008,0,.008,0,.008,0,.008,0,.008,0,.008,0,.008,0,.008,0,.008,0,.008,0,.008,0,.008,0,.008,0,.008,0,.008,0,.008,0,.008,0,.008,0,.008,0,.008,0,.008,0,.008,0,.008,0,.008,0,.008,0,.008,0,.008,0,.008,0,.008,0,.008,0,.008,0,.008,0,.008,0,.008,0,.008,0,.008,0,.008,0,.008,0,.008,0,.008,0,.008,0,.008-.005.008-.005.008-.005L6.4,7.416l.008-.005.008-.005L6.424,7.4l0,0,.007,0,0,0,.008-.005.008-.005,0,0,.007,0,.008-.005.008-.005.007-.005,0,0,0,0,.007,0,0,0,0,0,.007,0,0,0,0,0,.007-.005,0,0,0,0,.007-.005,0,0,.007-.005L6.565,7.3l0,0,.007-.005.007-.006,0,0,0,0,.006,0,0,0,0,0,.007-.005,0,0,.007-.006,0,0,.006-.005,0,0,0,0,0,0,0,0,0,0,0,0,.007-.005,0,0,0,0,.006,0,0,0,0,0,0,0,0,0L6.7,7.2l0,0,0,0,0,0,0,0,0,0,0,0,0,0,0,0,.006-.005,0,0,0,0,0,0,0,0,0,0,0,0,0,0,0,0,0,0,0,0,0,0,0,0,0,0,0,0,0,0,0,0,0,0,0,0,0,0,0,0,0,0,0,0,0,0,0,0,0,0,0,0,0,0,0,0,0,0,0,0,0,0,0,0,0,0,0,0,0,0,0,0,0,0,0,0,0,0,0,0,0,0,0,0,0,0,0,0,0,0,0,0,0,0,0,0,0,0,0,0,0,0,0,0,0,0,0,0,0,0,0,0,0,0,0,0,0,0,0,0,0,0,0,0,0,0,0,0,0,0,0,0,0,0,0,0,0,0,0,0,0,0,0,0,0,0,0,0,0,0,0,0,0,0,0,0,0,0,0,0,0,0,0,0,0,0,0,0,0,0,0,0,0,0,0,0,0,0,0,0,0,0,0,0,0,0,0,0,0,0,0,0,0,0,0,0,0,0,0,0,0,0,0,0,0,0,0,0,0,0,0,0,0,0,0,0,0,0,0,0,0,0,0,0,0,0,0,0,0,0,0,0,0,0,0,0,0,0,0,0,0,0,0,0,0,0,0,0,0,0,0,0,0,0,0,0,0,0,0,0,0,0,0,0,0,0,0,0,0,0,0,0,0,0,0,0,0,0,0,0,0,0,0,0,0,0,0,0,0,0,0,0,0,0,0,0,0,0,0,0,0,0,0,0,0,0,0,0,0,0,0,0,0,0,0,0,0,0,0,0,0,0,0,0,0,0,0,0,0,0,0,0,0,0,0,0,0,0,0,0,0,0,0,0,0,0,0,0,0,0,0,0,0,0,0,0,0,0,0,0,0,0,0,0,0,0,0,0,0,0,0,0,0,0,0,0,0,0,0,0,0,0,0,0,0,0,0,0,0,0,0,0,0,0,0,0,0,0,0,0,0,0,0,0,0,0,0,0,0,0,0,0,0,0,0,0,0,0,0,0,0,0,0,0,0,0,0,0,0,0,0,0,0,0,0,0,0,0,0,0,0,0,0,0,0,0,0,0,0,0,0,0,0,0,0,0,0,0,0,0,0,0,0,0,0,0,0,0,0,0,0,0,0,0,0,0,0,0,0,0,0,0,0,0,0,0,0,0,0,0,0,0,0,0,0,0,0,0,0,0,0,0,0,0,0,0,0,0,0,0,0,0,0,0,0,0,0,0,0,0,0,0,0,0,0,0,0,0,0,0,0,0,0,0,0,0,0,0,0,0,0,0,0,0,0,0,0,0,0,0,0,0,0,0,0,0,0,0,0,0,0,0,0,0,0,0,0,0,0,0,0,0,0,0,0,0,0,0,0,0,0,0,0,0,0,0,0,0,0,0,0,0,0,0,0,0,0,0,0,0,0,0,0,0,0,0,0,0,0,0,0,0,0,0,0,0,0,0,0,0,0,0,0,0,0,0,0,0,0,0,0,0,0,0,0,0,0,0,0,0,0,0,0,0,0,0,0,0,0,0,0,0,0,0,0,0,0,0,0,0,0,0,0,0,0,0,0,0,0,0,0,0,0,0,0,0,0,0,0,0,0,0,0,0,0,0,0,0,0,0,0,0,0,0,0,0,0,0,0,0,0,0,0,0,0,0,0,0,0,0,0,0v0l0,0,0,0,0,0,0,0,0,0,0,0,0,0,0,0,0,0,0,0,0,0v0l0,0v0l0,0,0,0,0,0,0,0,0,0,0,0,0,0v0l0,0,0,0,0-.005v0l0,0,0,0,0,0,0,0,0-.005v0l0,0,0,0,0,0,0,0,0-.005v0l0,0,0,0,0,0v0l0,0,0,0,0,0v0l0,0v0l0,0v0l0,0v0l0,0v0l0,0v0l0,0v0l0,0v0l0,0v0l0-.005v0l0,0v0l0,0v0l0-.005v0l0,0v0l0,0v0l0-.005v0l0,0v0l0,0v0l0,0V5.52l0,0v0l0,0v0l0-.005V5.486l0-.005V5.442l0-.005V5.4l0-.005V4.413s0,0,0,0V4.4s0,0,0,0,0-.006,0-.009h0s0,0,0,0,0,0,0-.005,0,0,0-.006v0s0,0,0-.005v0s0,0,0-.005V3.338l0-.005V3.3l0,0v0l0,0V3.277l0-.005V3.259l0,0V3.242l0-.005V3.225l0,0v0l0,0v0l0,0v0l0,0v0l0,0v0l0,0,0,0,0,0v0l0,0v0l0,0,0,0,0,0v0l0,0,0,0,0-.005v0l0,0,0,0,0,0v0l0,0v0l0,0v0l0,0,0,0,0,0,0,0,0,0,0,0,0,0,0,0,0,0,0,0,0,0v0l0,0v0l0,0v0l0,0,0,0,0,0,0,0,0,0,0,0,0,0,0,0,0,0,0,0,0,0,0,0,0,0,0,0,0,0,0,0,0,0,0,0,0,0,0,0,0,0,0,0,0,0,0,0,0,0,0,0,0,0,0,0,0,0,0,0,0,0,0,0,0,0,0,0,0,0,0,0,0,0,0,0,0,0,0,0,0,0,0,0,0,0,0,0,0,0,0,0,0,0,0,0,0,0,0,0,0,0,0,0,0,0,0,0,0,0,0,0,0,0,0,0,0,0,0,0,0,0,0,0,0,0,0,0,0,0,0,0,0,0,0,0,0,0,0,0,0,0,0,0,0-.005,0,0,0,0,0,0,0,0,0,0,0,0,0,0,0,0,0,0,0,0,0,0,0,0,0,0,0,0,0,0,0,0,0,0,0,0,0,0,0,0,0,0,0,0,0,0,0,0,0,0,0,0,0,0,0,0,0,0,0,0,0,0,0,0,0,0,0,0,0,0,0,0,0,0,0,0,0,0,0,0,0,0,0,0,0,0,0,0,0,0,0,0,0,0,0,0,0,0,0,0,0,0,0,0,0,0,0,0,0,0,0,0,0,0,0,0,0,0,0,0,0,0,0,0,0,0,0,0,0,0,0,0,0,0,0,0,0,0,0,0,0,0,0,0,0,0,0,0,0,0,0,0,0,0,0,0,0,0,0,0,0,0,0,0,0,0,0,0,0,0,0,0,0,0,0,0,0,0,0,0,0,0,0,0,0,0,0,0,0,0,0,0,0,0,0,0,0,0,0,0,0,0,0,0,0,0,0,0,0,0,0,0,0,0,0,0,0,0,0,0,0,0,0,0,0,0,0,0,0,0,0,0,0,0,0,0,0,0,0,0,0,0,0,0,0,0,0,0,0,0,0,0,0,0,0,0,0,0,0,0,0,0,0,0,0,0,0,0,0,0,0,0,0,0,0,0,0,0,0,0,0,0,0,0,0,0,0,0,0,0,0,0,0,0,0,0,0,0,0,0,0,0,0,0,0,0,0,0,0,0,0,0,0,0,0,0,0,0,0,0,0,0,0,0,0,0,0,0,0,0,0,0,0,0,0,0,0,0,0,0,0,0,0,0,0,0,0,0,0,0,0,0,0,0,0,0,0,0,0,0,0,0,0,0,0,0,0,0,0,0,0,0,0,0,0,0,0,0,0,0,0,0,0,0,0,0,0,0,0,0,0,0,0,0,0,0,0,0,0,0,0,0,0,0,0,0,0,0,0,0,0,0,0,0,0,0,0,0,0,0,0,0,0,0,0,0,0,0,0,0,0,0,0,0,0,0,0,0,0,0,0,0,0,0,0,0,0,0,0,0,0,0,0,0,0,0,0,0,0,0,0,0,0,0,0,0,0,0,0,0,0,0,0,0,0,0,0,0,0,0,0,0,0,0,0,0,0,0,0,0,0,0,0,0,0,0,0,0,0,0,0,0,0,0,0,0,0,0,0,0,0,0,0,0,0,0,0,0,0,0,0,0,0,0,0,0,0,0,0,0,0,0,0,0,0,0,0,0,0,0,0,0,0,0,0,0,0,0,0,0,0,0,0,0,0,0,0,0,0,0,0,0,0,0,0,0,0,0,0,0,0,0,0,0,0,0,0,0,0,0,0,0,0,0,0,0,0,0,0,0,0,0,0,0,0,0,0,0,0,0,0,0,0,0,0,0,0,0-.006-.005,0,0,0,0,0,0,0,0,0,0,0,0,0,0,0,0,0,0,0,0,0,0,0,0,0,0,0,0,0,0,0,0,0,0,0,0,0,0,0,0-.007-.006,0,0,0,0,0,0,0,0,0,0,0,0,0,0,0,0-.006-.005,0,0,0,0,0,0,0,0,0,0,0,0-.007-.005,0,0,0,0,0,0,0,0L6.6,1.5l-.007-.006,0,0,0,0,0,0,0,0-.007-.005,0,0,0,0-.007-.005-.007-.005-.007-.005,0,0,0,0-.006,0,0,0,0,0-.007-.005L6.5,1.426l-.007-.005-.007-.005L6.478,1.41l0,0,0,0-.007,0-.008-.006-.008-.005-.007,0-.008-.005-.008-.005-.007,0-.007,0L6.4,1.359l-.007,0-.008-.005-.007,0-.008-.005-.008-.005-.007,0-.008-.005-.008,0-.007,0-.008,0L6.318,1.3l-.008,0-.008,0-.007,0-.008,0-.008,0-.008-.005-.007,0-.008,0-.007,0L6.24,1.257l-.008,0-.008,0-.007,0-.008,0-.008,0-.008,0-.007,0-.009,0-.008,0-.008,0-.008,0-.008,0-.008,0-.009,0-.007,0-.009,0-.007,0-.009,0-.008,0-.008,0-.009,0-.008,0-.008,0-.008,0-.008,0-.008,0-.008,0-.008,0-.008,0L6,1.126l-.008,0-.008,0-.009,0-.008,0-.009,0-.008,0-.009,0-.008,0-.009,0-.008,0-.009,0-.007,0-.009,0-.008,0-.008,0-.008,0-.009,0-.008,0-.009,0-.008,0-.008,0-.009,0-.009,0-.007,0-.009,0-.008,0-.008,0-.008,0-.009,0-.009,0-.008,0-.009,0L5.726,1,5.716,1,5.709,1,5.7.994l-.008,0-.009,0-.008,0-.008,0-.009,0-.009,0-.008,0-.009,0-.009,0-.009,0-.008,0L5.6.956l-.008,0-.008,0-.01,0-.008,0-.009,0-.009,0-.009,0-.009,0L5.52.93l-.008,0L5.5.924l-.009,0-.009,0-.008,0-.009,0-.008,0-.009,0-.009,0L5.433.9,5.424.9,5.416.9l-.009,0L5.4.892,5.39.89l-.009,0-.009,0-.008,0-.009,0-.009,0-.009,0-.009,0-.009,0-.008,0-.01,0-.008,0-.009,0-.009,0-.009,0-.009,0-.008,0-.01,0-.008,0-.01,0-.008,0L5.2.842,5.2.84l-.01,0-.008,0-.01,0-.008,0-.01,0-.008,0-.009,0-.008,0-.01,0-.008,0L5.1.819l-.009,0-.009,0-.009,0-.009,0-.009,0-.008,0-.009,0-.009,0L5.017.8,5.008.8,5,.8,4.99.8h-1.2L3.776.8,3.768.8,3.759.8l-.009,0-.009,0-.009,0-.009,0-.009,0L3.7.814,3.7.816l-.009,0-.009,0-.009,0-.009,0-.009,0-.009,0-.009,0-.009,0-.009,0-.009,0L3.6.836l-.009,0L3.58.84l-.009,0-.009,0-.009,0-.009,0-.009,0-.009,0-.009,0-.009,0L3.5.859l-.009,0-.009,0-.009,0-.009,0-.009,0-.009,0-.009,0-.009,0-.009,0-.009,0L3.4.884l-.009,0-.009,0-.009,0-.009,0L3.36.9,3.351.9,3.342.9,3.333.9l-.009,0-.009,0-.009,0L3.3.916l-.009,0-.009,0-.009,0-.009,0-.009,0-.009,0-.009,0-.009,0-.009,0-.009,0L3.2.947l-.009,0-.009,0-.009,0-.009,0-.009,0-.009,0-.009,0-.009,0-.009,0-.009,0-.009,0L3.1.984l-.009,0-.009,0-.008,0L3.067,1,3.058,1,3.05,1l-.008,0-.008,0-.008,0-.008,0-.008,0L3,1.024l-.008,0-.008,0-.008,0-.008,0-.008,0-.008,0-.008,0-.008,0-.008,0-.008,0-.008,0-.008,0-.008,0-.008,0-.008,0-.008,0-.008,0-.008,0-.008,0-.008,0-.008,0-.008,0-.008,0-.008,0-.008,0-.008,0-.008,0-.008,0-.008,0-.008,0-.008,0-.008,0-.008,0-.008,0-.008,0-.008,0-.008,0-.008,0-.008,0-.008,0-.008,0-.008,0-.008,0-.008,0-.008,0-.008,0-.008,0-.008,0-.008,0-.008,0-.008,0-.008,0-.008,0-.008,0-.008,0-.008,0-.008,0-.008,0-.008,0-.008,0-.008,0-.008,0-.008,0-.008,0-.008,0-.008,0-.008,0-.008,0-.008,0-.008,0-.008,0-.008,0-.008,0-.008,0-.008,0-.008.005-.008.005-.008.005-.008.005-.008.005-.008.005-.008.005-.008.005-.008.005,0,0-.007,0,0,0,0,0-.007,0-.007.005-.007.005,0,0,0,0-.007,0,0,0,0,0-.007,0,0,0,0,0-.007.005-.007.005-.007.005,0,0,0,0,0,0,0,0,0,0,0,0-.006,0,0,0,0,0,0,0,0,0,0,0,0,0,0,0,0,0-.007.005,0,0,0,0,0,0,0,0,0,0,0,0-.007.005,0,0,0,0,0,0,0,0,0,0,0,0,0,0,0,0L2.1,1.561l0,0,0,0,0,0,0,0,0,0,0,0,0,0,0,0,0,0,0,0,0,0,0,0L2.048,1.6l0,0,0,0,0,0,0,0,0,0,0,0,0,0,0,0,0,0,0,0,0,0,0,0,0,0,0,0,0,0,0,0-.006.005,0,0,0,0,0,0,0,0,0,0,0,0,0,0,0,0,0,0,0,0,0,0,0,0,0,0,0,0,0,0,0,0-.006.005,0,0,0,0,0,0,0,0,0,0,0,0L1.9,1.735l0,0,0,0,0,0,0,0,0,0,0,0,0,0,0,0,0,0,0,0,0,0,0,0,0,0,0,0,0,0,0,0,0,0,0,0,0,0,0,0,0,0,0,0,0,0,0,0,0,0,0,0,0,0,0,0,0,0,0,0,0,0,0,0,0,0,0,0,0,0,0,0,0,0,0,0,0,0,0,0,0,0,0,0,0,0,0,0,0,0,0,0,0,0,0,0,0,0,0,0,0,0,0,0,0,0,0,0,0,0,0,0,0,0,0,0,0,0,0,0,0,0,0,0,0,0,0,0,0,0,0,0,0,0,0,0,0,0,0,0,0,0,0,0,0,0,0,0,0,0,0,0,0,0,0,0,0,0,0,0,0,0,0,0,0,0,0,0,0,0,0,0,0,0,0,0,0,0,0,0,0,0,0,0,0,0,0,0,0,0,0,0,0,0,0,0,0,0,0,0,0,0,0,0,0,0,0,0,0,0,0,0,0,0,0,0,0,0,0,0,0,0,0,0,0,0,0,0,0,0,0,0,0,0,0,0,0,0,0,0,0,0,0,0,0,0,0,0,0,0,0,0,0,0,0,0,0,0,0,0,0,0,0,0,0,0,0,0,0,0,0,0,0,0,0,0,0,0,0,0,0,0,0,0,0,0,0,0,0,0,0,0,0,0,0,0,0,0,0,0,0,0,0,0,0,0,0,0,0,0,0,0,0,0,0,0,0,0,0,0,0,0,0,0,0,0,0,0,0,0,0,0,0,0,0,0,0,0,0,0,0,0,0,0,0,0,0,0,0,0,0,0,0,0,0,0,0,0,0,0,0,0,0,0,0,0,0,0,0,0,0,0,0,0,0,0,0,0,0,0,0,0,0,0,0,0,0,0,0,0,0,0,0,0,0,0,0,0,0,0,0,0,0,0,0,0,0,0,0,0,0,0,0,0,0,0,0,0,0,0,0,0,0,0,0,0,0,0,0,0,0,0,0,0,0,0,0,0,0,0,0,0,0,0,0,0,0,0,0,0,0,0,0,0,0,0,0,0,0,0,0,0,0,0,0,0,0,0,0,0,0,0,0,0,0,0,0,0,0,0,0,0,0,0,0,0,0,0,0,0,0,0,0,0,0,0,0,0,0,0,0,0,0,0,0,0,0,0,0,0,0,0,0,0,0,0,0,0,0,0,0,0,0,0,0,0,0,0,0,0,0,0,0,0,0,0,0,0,0,0,0,0,0,0,0,0,0,0,0,0,0,0,0,0,0,0,0,0,0,0,0,0,0,0,0,0,0,0,0,0,0,0,0,0,0,0,0,0,0,0,0,0,0,0,0,0,0,0,0,0,0,0,0,0,0,0,0,0,0,0,0,0,0,0,0,0,0,0,0,0,0,0,0,0,0,0,0,0,0,0,0,0,0,0,0,0,0,0,0,0,0,0,0,0,0,0,0,0,0,0v0l0,0,0,0,0,.005v0l0,0,0,0,0,0,0,0,0,0v0l0,0v0l0,0,0,0,0,0,0,0,0,0V3l0,0,0,0,0,.005v0l0,0,0,0,0,0v0l0,0v0l0,0,0,0,0,.005v0l0,0,0,0,0,0,0,0,0,0v0l0,0v0l0,0,0,0,0,0v0l0,.005v0l0,0v0l0,0v0l0,0v0l0,0v0l0,0v0l0,0,0,0,0,.005V3.18l0,0,0,0v0l0,.005v0l0,0v0l0,.005v0l0,0v0l0,0v0l0,0v0l0,0v0l0,0v0l0,0v0l0,0v0l0,0v0l0,.005v.012l0,.005v.021l0,0V3.4l0,.005v.955s0,0,0,0v0s0,0,0,0,0,0,0,.005,0,0,0,0v.009s0,0,0,0,0,0,0,0,0,0,0,0,0,0,0,.006v0s0,0,0,.005v0s0,0,0,.005V5.465l0,.005V5.5l0,0v0l0,0v0l0,0v0l0,0v0l0,0v.012l0,.005v.012l0,0v0l0,0v0l0,0v0l0,0v0l0,0v0l0,0v0l0,0v0l0,0v0l0,0v0l0,0,0,0,0,0v0l0,0,0,0,0,0,0,0,0,0v0l0,.005v0l0,0,0,0,0,0,0,0,0,0,0,0,0,.005v0l0,0,0,0,0,0,0,0,0,0,0,0,0,0,0,0,0,0,0,0,0,0,0,0,0,0,0,0,0,0,0,0,0,0,0,0,0,0,0,0,0,0,0,0,0,0,0,0,0,0,0,0,0,0,0,0,0,0,0,0,0,0,0,0,0,0,0,0,0,0,0,0,0,0,0,0,0,0,0,0,0,0,0,0,0,0,0,0,0,0,0,0,0,0,0,0,0,0,0,0,0,0,0,0,0,0,0,0,0,0,0,0,0,0,0,0,0,0,0,0,0,0,0,0,0,0,0,0,0,0,0,0,0,0,0,0,0,0,0,0,0,.005,0,0,0,0,0,0,0,0,0,0,0,0,0,0,0,0,0,0,0,0,0,0,0,0,0,0,0,0,0,0,0,0,0,0,0,0,0,0,0,0,0,0,0,0,0,0,0,0,0,0,0,0,0,0,0,0,0,0,0,0,0,0,0,0,0,0,0,0,0,0,0,0,0,0,0,0,0,0,0,0,0,0,0,0,0,0,0,0,0,0,0,0,0,0,0,0,0,0,0,0,0,0,0,0,0,0,0,0,0,0,0,0,0,0,0,0,0,0,0,0,0,0,0,0,0,0,0,0,0,0,0,0,0,0,0,0,0,0,0,0,0,0,0,0,0,0,0,0,0,0,0,0,0,0,0,0,0,0,0,0,0,0,0,0,0,0,0,0,0,0,0,0,0,0,0,0,0,0,0,0,0,0,0,0,0,0,0,0,0,0,0,0,0,0,0,0,0,0,0,0,0,0,0,0,0,0,0,0,0,0,0,0,0,0,0,0,0,0,0,0,0,0,0,0,0,0,0,0,0,0,0,0,0,0,0,0,0,0,0,0,0,0,0,0,0,0,0,0,0,0,0,0,0,0,0,0,0,0,0,0,0,0,0,0,0,0,0,0,0,0,0,0,0,0,0,0,0,0,0,0,0,0,0,0,0,0,0,0,0,0,0,0,0,0,0,0,0,0,0,0,0,0,0,0,0,0,0,0,0,0,0,0,0,0,0,0,0,0,0,0,0,0,0,0,0,0,0,0,0,0,0,0,0,0,0,0,0,0,0,0,0,0,0,0,0,0,0,0,0,0,0,0,0,0,0,0,0,0,0,0,0,0,0,0,0,0,0,0,0,0,0,0,0,0,0,0,0,0,0,0,0,0,0,0,0,0,0,0,0,0,0,0,0,0,0,0,0,0,0,0,0,0,0,0,0,0,0,0,0,0,0,0,0,0,0,0,0,0,0,0,0,0,0,0,0,0,0,0,0,0,0,0,0,0,0,0,0,0,0,0,0,0,0,0,0,0,0,0,0,0,0,0,0,0,0,0,0,0,0,0,0,0,0,0,0,0,0,0,0,0,0,0,0,0,0,0,0,0,0,0,0,0,0,0,0,0,0,0,0,0,0,0,0,0,0,0,0,0,0,0,0,0,0,0,0,0,0,0,0,0,0,0,0,0,0,0,0,0,0,0,0,0,0,0,0,0,0,0,0,0,0,0,0,0,0,0,0,0,0,0,0,0,0,0,0,0,0,0,0,0,0,0,0,0,0,0,0,0,0,0,0,0,0,0,0,0,0,0,0,0,0,0,0,0,0,0,0,0,0,0,0,0,0,0,0,0,0,0,0,0,0,0,0,0,0,0,0,0,0,0,0,0,0,0,0,0,0,0,0,0,0,0,0,0,0,0,0,0,0,0L2,7.141l0,0,0,0,0,0,0,0,0,0,0,0,.006.005,0,0,0,0,0,0,0,0,0,0,0,0,0,0,0,0,0,0,0,0,.007.005,0,0,0,0,0,0,0,0,0,0,0,0,0,0,0,0,.007.005,0,0,0,0,0,0,0,0,0,0,0,0,.006.005.007.006,0,0,0,0,0,0,0,0,0,0,0,0,0,0,0,0,.007.005,0,0,0,0,.007.005L2.2,7.3l0,0,0,0,.007,0,.008.006.007.005.007.005,0,0,0,0,.007.005.007.005,0,0,0,0,.007.005.007.005.007.005.007.005.008.005.008.005.007.005.007,0,.008.006.008.005.007,0,.008.005.008.005.008.005.007,0,.008.005.008.005.007,0,.008,0,.008.005.007,0,.008.005.008.005.007,0,.008,0,.007,0,.008.005.007,0,.008,0,.007,0,.009.005.007,0,.008,0,.008,0,.008,0,.008,0,.008,0,.008,0,.008,0,.008,0,.008,0,.008,0,.009,0,.007,0,.008,0,.008,0,.007,0,.009,0,.008,0,.008,0,.008,0,.008,0,.008,0,.008,0,.007,0,.009,0,.008,0,.008,0,.008,0,.008,0,.009,0,.007,0,.009,0,.007,0,.008,0,.007,0,.009,0,.008,0,.008,0,.008,0,.009,0,.008,0,.008,0,.008,0,.008,0,.008,0,.009,0,.008,0,.008,0,.009,0,.008,0,.009,0,.008,0,.008,0,.009,0,.008,0,.008,0,.009,0,.008,0,.008,0,.009,0,.008,0,.009,0,.008,0,.009,0,.009,0,.008,0,.008,0,.009,0,.008,0,.008,0,.009,0,.008,0,.009,0,.008,0,.008,0,.009,0,.009,0,.009,0,.008,0,.009,0,.008,0,.009,0,.009,0,.008,0,.01,0,.008,0,.009,0,.009,0,.009,0,.008,0,.009,0,.009,0,.008,0,.009,0,.009,0,.008,0,.009,0,.009,0,.008,0,.009,0,.009,0,.009,0,.009,0,.009,0,.008,0,.01,0,.008,0,.009,0,.009,0,.009,0,.009,0,.009,0,.008,0,.01,0,.008,0,.009,0,.009,0,.008,0,.009,0,.008,0,.01,0,.009,0,.008,0,.009,0,.009,0,.009,0,.008,0,.01,0,.009,0,.008,0,.009,0,.009,0,.009,0,.009,0,.008,0,.009,0,.009,0,.008,0,.009,0,.009,0,.009,0,.009,0,.008,0,.009,0,.009,0,.009,0,.009,0,.009,0h.008l.01,0h.035l.01,0H4.39Z" transform="translate(2.45)" fill="#f5204e"/></g></svg>