<svg xmlns="http://www.w3.org/2000/svg" width="25.5" height="32" viewBox="0 0 25.5 32"><g transform="translate(-123.25 -1533)"><path d="M0,7.5v-6A1.5,1.5,0,0,1,1.5,0h14A1.5,1.5,0,0,1,17,1.5v27A1.5,1.5,0,0,1,15.5,30H1.5A1.5,1.5,0,0,1,0,28.5v-17" transform="translate(124.2 1534)" fill="#ebf2f5"/><g transform="translate(124.5 1534.5)"><path d="M16.5,0V8H0V0Z" transform="translate(0 21.5)" fill="#ebebeb"/><path d="M16.5,0V3.5H0V0Z" fill="#ebebeb"/><path d="M1,2A1,1,0,1,1,2,1,1,1,0,0,1,1,2Z" transform="translate(22.25 28.5)" fill="#f5204e"/></g><path d="M20.5,32H2.5a2.484,2.484,0,0,1-1.768-.733A2.517,2.517,0,0,1,0,29.5v-17a1,1,0,1,1,2,0V22H17V6H2V8.5a1,1,0,0,1-1.707.707A1.007,1.007,0,0,1,0,8.5v-6A2.5,2.5,0,0,1,2.5,0h14A2.5,2.5,0,0,1,19,2.5V4.64a1,1,0,0,1,.5.859V10a1.008,1.008,0,0,1-.136.5A1,1,0,0,1,19,10.86v2.28a1,1,0,0,1,.5.86v1a1,1,0,0,1-.5.859V29.5a2.745,2.745,0,0,1-.049.5H20.5a1,1,0,0,1,0,2ZM2,24v5.5a.5.5,0,0,0,.5.5h14a.5.5,0,0,0,.5-.5V24ZM2.5,2a.5.5,0,0,0-.5.5V4H17V2.5a.5.5,0,0,0-.5-.5Z" transform="translate(123.25 1533)" fill="#f5204e"/><path d="M1,0A1,1,0,1,0,1,2H6A1,1,0,1,0,6,0Z" transform="translate(129.25 1559)" fill="#f5204e"/><path d="M2.793.293A1,1,0,0,0,2.5,1V2.5H1a1,1,0,0,0,0,2H2.5V6a1,1,0,1,0,2,0V4.5H6a1,1,0,0,0,0-2H4.5V1A1,1,0,0,0,2.793.293Z" transform="translate(129.25 1543.5)" fill="#f5204e"/></g></svg>